<?xml version="1.0" encoding="UTF-8"?>
<svg width="23px" height="26px" viewBox="0 0 23 26" version="1.1" xmlns="http://www.w3.org/2000/svg" xmlns:xlink="http://www.w3.org/1999/xlink">
    <!-- Generator: Sketch 48.2 (47327) - http://www.bohemiancoding.com/sketch -->
    <title>проверка</title>
    <desc>Created with Sketch.</desc>
    <defs></defs>
    <g id="статусы" stroke="none" stroke-width="1" fill="none" fill-rule="evenodd" transform="translate(-22.000000, -140.000000)">
        <g id="пакет-проверяется" transform="translate(22.000000, 140.000000)" fill="#F1BC00" fill-rule="nonzero">
            <g id="проверка">
                <path d="M18,16.5 C18,16.2238576 17.8321068,16 17.625,16 L15.375,16 C15.1678932,16 15,16.2238576 15,16.5 C15,16.7761424 15.1678932,17 15.375,17 L17.625,17 C17.8321068,17 18,16.7761424 18,16.5 Z" id="Shape"></path>
                <path d="M17.6,11 L14.4,11 C14.1790861,11 14,11.2238576 14,11.5 C14,11.7761424 14.1790861,12 14.4,12 L17.6,12 C17.8209139,12 18,11.7761424 18,11.5 C18,11.2238576 17.8209139,11 17.6,11 Z" id="Shape"></path>
                <path d="M13,11.5 C13,11.2238576 12.8321068,11 12.625,11 L10.375,11 C10.1678932,11 10,11.2238576 10,11.5 C10,11.7761424 10.1678932,12 10.375,12 L12.625,12 C12.8321068,12 13,11.7761424 13,11.5 Z" id="Shape"></path>
                <path d="M10.5,13 C10.2238576,13 10,13.2238576 10,13.5 C10,13.7761424 10.2238576,14 10.5,14 L11.5,14 C11.7761424,14 12,13.7761424 12,13.5 C12,13.2238576 11.7761424,13 11.5,13 L10.5,13 Z" id="Shape"></path>
                <path d="M10.4166667,9 L14.5833333,9 C14.813452,9 15,8.77614237 15,8.5 C15,8.22385763 14.813452,8 14.5833333,8 L10.4166667,8 C10.186548,8 10,8.22385763 10,8.5 C10,8.77614237 10.186548,9 10.4166667,9 Z" id="Shape"></path>
                <path d="M12.4166667,14 L16.5833333,14 C16.813452,14 17,13.7761424 17,13.5 C17,13.2238576 16.813452,13 16.5833333,13 L12.4166667,13 C12.186548,13 12,13.2238576 12,13.5 C12,13.7761424 12.186548,14 12.4166667,14 Z" id="Shape"></path>
                <path d="M15.5,18 C15.2238576,18 15,18.2238576 15,18.5 C15,18.7761424 15.2238576,19 15.5,19 L16.5,19 C16.7761424,19 17,18.7761424 17,18.5 C17,18.2238576 16.7761424,18 16.5,18 L15.5,18 Z" id="Shape"></path>
                <path d="M13.6,16 L10.4,16 C10.1790861,16 10,16.2238576 10,16.5 C10,16.7761424 10.1790861,17 10.4,17 L13.6,17 C13.8209139,17 14,16.7761424 14,16.5 C14,16.2238576 13.8209139,16 13.6,16 Z" id="Shape"></path>
                <path d="M13.6,18 L10.4,18 C10.1790861,18 10,18.2238576 10,18.5 C10,18.7761424 10.1790861,19 10.4,19 L13.6,19 C13.8209139,19 14,18.7761424 14,18.5 C14,18.2238576 13.8209139,18 13.6,18 Z" id="Shape"></path>
                <path d="M19.3836255,25.133348 L2.18612317,25.133348 C1.46170568,25.133348 0.87444927,24.551328 0.87444927,23.8333699 L0.87444927,2.16706913 C0.876052271,1.44977017 1.4623707,0.868679786 2.18612317,0.867091078 L15.996592,0.867091078 L20.2405858,5.07035343 C20.4120312,5.2434611 20.6926093,5.24604785 20.8672744,5.07613111 C21.0419395,4.90621437 21.0445495,4.62813815 20.8731041,4.45503049 L16.5008577,0.121770331 C16.4144251,0.0389636733 16.2974042,-0.00491968338 16.1773115,0.00043904621 L2.18612317,0.00043904621 C0.979426421,0.00203044812 0.0016057197,0.971132175 0,2.16706913 L0,23.8333699 C0,25.0299667 0.978760684,26 2.18612317,26 L19.3836255,26 C19.625098,26 19.8208501,25.8059933 19.8208501,25.566674 C19.8208501,25.3273546 19.625098,25.133348 19.3836255,25.133348 Z" id="Shape"></path>
                <path d="M13.6,21 L10.4,21 C10.1790861,21 10,21.2238576 10,21.5 C10,21.7761424 10.1790861,22 10.4,22 L13.6,22 C13.8209139,22 14,21.7761424 14,21.5 C14,21.2238576 13.8209139,21 13.6,21 Z" id="Shape"></path>
                <path d="M7,8.375 C7,8.16789322 6.83210678,8 6.625,8 L4.375,8 C4.16789322,8 4,8.16789322 4,8.375 L4,10.625 C4,10.8321068 4.16789322,11 4.375,11 L6.625,11 C6.83210678,11 7,10.8321068 7,10.625 L7,8.375 Z M6.25,10.25 L4.75,10.25 L4.75,8.755 L6.25,8.755 L6.25,10.25 Z" id="Shape"></path>
                <path d="M4.375,21 L6.625,21 C6.83210678,21 7,20.8321068 7,20.625 L7,18.375 C7,18.1678932 6.83210678,18 6.625,18 L4.375,18 C4.16789322,18 4,18.1678932 4,18.375 L4,20.625 C4,20.8321068 4.16789322,21 4.375,21 Z M4.75,18.75 L6.25,18.75 L6.25,20.25 L4.75,20.25 L4.75,18.75 Z" id="Shape"></path>
                <path d="M4.375,16 L6.625,16 C6.83210678,16 7,15.8321068 7,15.625 L7,13.375 C7,13.1678932 6.83210678,13 6.625,13 L4.375,13 C4.16789322,13 4,13.1678932 4,13.375 L4,15.625 C4,15.8321068 4.16789322,16 4.375,16 Z M4.75,13.75 L6.25,13.75 L6.25,15.25 L4.75,15.25 L4.75,13.75 Z" id="Shape"></path>
                <path d="M22.9999749,6.90571416 L22.9999749,23.4399994 C23.0018153,23.9047322 22.9023784,24.3644974 22.7083093,24.7885708 C22.6303287,24.9197042 22.4869822,25.0002561 22.3320606,24.9999994 C22.1753219,24.9996707 22.0307382,24.9172296 21.9530388,24.7838825 C21.8753393,24.6505354 21.8763972,24.486659 21.955812,24.3542851 C22.0730181,24.0631199 22.1333692,23.7529842 22.133728,23.4399994 L22.133728,6.71428559 L18.1874922,6.71428559 C16.9793736,6.71428559 16,5.75489579 16,4.5714285 L16,2.42857142 C16,2.19187796 16.1958747,2 16.4374984,2 C16.6791221,2 16.8749969,2.19187796 16.8749969,2.42857142 L16.8749969,4.5714285 C16.8749969,5.28150888 17.462621,5.85714275 18.1874922,5.85714275 L22.5624765,5.85714275 C22.8041002,5.85714275 22.9999749,6.04902071 22.9999749,6.28571417 L22.9999749,6.90571416 Z" id="Shape"></path>
            </g>
        </g>
    </g>
</svg>