<?xml version="1.0" encoding="UTF-8"?>
<svg width="23px" height="23px" viewBox="0 0 23 23" version="1.1" xmlns="http://www.w3.org/2000/svg" xmlns:xlink="http://www.w3.org/1999/xlink">
    <!-- Generator: Sketch 48.2 (47327) - http://www.bohemiancoding.com/sketch -->
    <title>Group Copy 2</title>
    <desc>Created with Sketch.</desc>
    <defs></defs>
    <g id="статусы" stroke="none" stroke-width="1" fill="none" fill-rule="evenodd" transform="translate(-22.000000, -386.000000)">
        <g id="поставлена-в-очередь" transform="translate(22.000000, 345.000000)" fill="#4CCC80" fill-rule="nonzero">
            <g id="заявка-принята" transform="translate(0.000000, 41.000000)">
                <g id="Group-Copy-2">
                    <path d="M6.35832653,1.42693878 C1.51447959,3.99918367 -1.11761224,9.93177551 0.81344898,15.2011224 C2.83979592,20.7312143 8.52666327,23.8202551 14.2705612,22.5165306 C15.0865918,22.3313571 14.7404184,21.0799694 13.9250918,21.2646735 C8.89888776,22.4055204 3.43380612,19.5957653 1.95335714,14.5134694 C0.606918367,9.89516327 2.58961224,4.70514286 7.01359184,2.54783673 C11.3631735,0.426673469 16.9761122,1.61938776 19.7436224,5.73192857 C22.3761837,9.64427551 22.0689694,14.6840918 19.0019898,18.2061429 C18.672949,17.8768673 18.3434388,17.5473571 18.0139286,17.2180816 C18.0125204,17.2159694 18.0099388,17.2150306 18.0078265,17.2129184 C18.0019592,17.2075204 17.9946837,17.2023571 17.9885816,17.1974286 C17.7691429,16.9967653 17.511449,16.9906633 17.3009286,17.0953367 C17.0901735,17.1739592 16.9237755,17.3560816 16.9096939,17.6402959 C16.9085204,17.6503878 16.9071122,17.6604796 16.9066429,17.6705714 C16.9066429,17.672449 16.9061735,17.6745612 16.9061735,17.6766735 C16.9061735,18.6534694 16.9061735,19.6297959 16.9061735,20.6061224 C16.9061735,20.9605102 17.2014184,21.2557551 17.555102,21.2557551 C18.531898,21.2557551 19.5082245,21.2557551 20.4850204,21.2557551 C21.050398,21.2557551 21.3437653,20.5479184 20.9431429,20.1477653 C20.6030714,19.8072245 20.2622959,19.4662143 19.9212857,19.1256735 C23.4623469,15.1018469 23.834102,9.17394898 20.6450816,4.77508163 C17.465449,0.388183673 11.161102,-1.1230102 6.35832653,1.42693878 Z" id="Shape"></path>
                    <path d="M6.6509898,17.2183163 C8.35252041,15.5172551 10.0533469,13.8159592 11.7544082,12.114898 C13.2092755,12.114898 14.6636735,12.114898 16.1183061,12.114898 C16.9554592,12.114898 16.9554592,10.8170408 16.1183061,10.8170408 C14.5744898,10.8170408 13.0297347,10.8170408 11.485449,10.8170408 C11.480051,10.8170408 11.4755918,10.818449 11.4701939,10.818449 C11.4284184,10.8177449 11.3861735,10.8219694 11.3436939,10.8308878 C11.3373571,10.8320612 11.3317245,10.8341735 11.3256224,10.8355816 C11.296051,10.8428571 11.2662449,10.8517755 11.2371429,10.8642143 C11.2054592,10.8768878 11.1768265,10.8923776 11.1491327,10.9092755 C11.1453776,10.9116224 11.1416224,10.9135 11.138102,10.9158469 C11.100551,10.9402551 11.0662857,10.967949 11.0364796,10.9991633 C11.0334286,11.0022143 11.0299082,11.0040918 11.0266224,11.0073776 C9.26195918,12.7715714 7.49753061,14.536 5.73333673,16.3004286 C5.14073469,16.8930306 6.05862245,17.8111531 6.6509898,17.2183163 Z" id="Shape"></path>
                </g>
            </g>
        </g>
    </g>
</svg>