<?xml version="1.0" encoding="UTF-8"?>
<svg width="26px" height="21px" viewBox="0 0 26 21" version="1.1" xmlns="http://www.w3.org/2000/svg" xmlns:xlink="http://www.w3.org/1999/xlink">
    <!-- Generator: Sketch 48.2 (47327) - http://www.bohemiancoding.com/sketch -->
    <title>Group</title>
    <desc>Created with Sketch.</desc>
    <defs></defs>
    <g id="статусы" stroke="none" stroke-width="1" fill="none" fill-rule="evenodd" transform="translate(-21.000000, -465.000000)">
        <g id="регистрация-пройдена" transform="translate(21.000000, 465.000000)" fill="#4CCC80" fill-rule="nonzero">
            <g id="Group">
                <path d="M8.14031371,16.553496 L7.62036163,16.1820368 C7.60328393,16.3752526 7.54422016,16.5627894 7.44704427,16.7323467 C7.42431412,16.769034 7.40158397,16.8020526 7.37885383,16.8314025 L7.84482182,17.1670915 L7.93005986,17.2276256 C7.96415508,17.1808493 7.99540903,17.1340729 8.02666298,17.0872966 C8.11872239,16.9412261 8.18767735,16.7826294 8.2312343,16.6167816 L8.14031371,16.553496 Z M11.618026,19.0546545 L11.2088834,18.751984 C11.0637131,18.9278468 10.8923034,19.0817883 10.7002964,19.2087413 L11.2515024,19.6049644 L11.2713913,19.6214737 C11.4479608,19.4770793 11.6079911,19.3147224 11.7487244,19.137201 L11.618026,19.0546545 Z M21.4743855,16.9084459 C21.4743855,16.8946881 21.4743855,16.8616695 21.4743855,16.8176447 C21.4743855,16.7736199 21.4743855,16.6828188 21.4743855,16.6277878 C21.481681,16.4655203 21.4585782,16.3033142 21.4061951,16.1490182 L21.3124332,15.9619128 C21.0220728,15.4675451 20.6293403,15.0366281 20.1588783,14.6962001 L19.8065611,14.4430575 L20.7782748,16.3994092 C20.7782748,16.498465 20.8010049,16.7516075 20.8038462,16.8396571 C20.8066875,16.9277067 20.8038462,16.9304583 20.8038462,16.9607253 C20.8210776,17.1209959 20.7697336,17.281103 20.6617828,17.4037248 C20.6113654,17.4628196 20.5562673,17.5180178 20.4969892,17.5688178 L20.462894,17.5908302 C20.2377545,17.7436302 19.9379387,17.7436302 19.7127992,17.5908302 L15.1866589,14.0963623 C15.0386311,13.9906533 14.8309124,14.016492 14.7152767,14.1549989 C14.599641,14.2935057 14.6170512,14.4956159 14.7547862,14.6136536 L18.1415779,17.2551411 C18.4803059,17.5183896 18.7361993,17.8681873 18.8803076,18.2649598 L18.9200854,18.3750218 C18.9537373,18.4704005 18.930846,18.5759644 18.8604187,18.6501767 L18.8348473,18.6749407 C18.6593736,18.8310141 18.4244576,18.9088424 18.1870382,18.8895615 C17.9892124,18.8599046 17.8029848,18.7801722 17.6471972,18.6584314 L13.7660248,15.2987894 C13.6247978,15.1756987 13.4072723,15.1867859 13.280168,15.3235534 C13.1530636,15.4603208 13.1645123,15.6709776 13.3057394,15.7940683 L16.5078487,18.6061519 C16.5512738,18.6431553 16.5820025,18.6921126 16.595928,18.7464809 L16.595928,18.7794995 L16.7607215,19.2335052 C16.7735779,19.3659385 16.7659165,19.4994891 16.7379914,19.6297283 L16.6896898,19.7287841 C16.6544383,19.8016876 16.5879879,19.8559847 16.5078487,19.8773678 C16.1362134,19.9761298 15.7385466,19.8706203 15.4707857,19.6022128 L13.2148188,17.4009732 C13.0806761,17.2762311 12.8687871,17.2762311 12.7346444,17.4009732 C12.5990136,17.5240513 12.5901674,17.7296554 12.7147556,17.8632336 L14.5757863,19.888374 C14.634792,19.9469106 14.6638433,20.0278377 14.6550577,20.1091975 C14.646272,20.1905574 14.6005605,20.263913 14.530326,20.3093611 L14.4933895,20.334125 C14.0475229,20.3218817 13.6080111,20.2285411 13.1977712,20.0589701 C12.9835243,19.9728581 12.778852,19.8659172 12.5868985,19.7397903 C12.5742846,19.7773901 12.5571174,19.813411 12.5357557,19.8471008 C12.4326314,20.0097652 12.2864664,20.1427648 12.1124067,20.2323177 C12.8389227,20.7294766 13.7060867,20.9975534 14.5956751,21 C14.6644476,20.9989651 14.7314821,20.978917 14.7888814,20.9422175 L14.9025321,20.859671 C15.0941787,20.7315369 15.233809,20.542811 15.2974684,20.3258704 C15.7144301,20.5759835 16.2210728,20.6439342 16.6925311,20.5129757 C16.9597413,20.4381356 17.1817055,20.2571733 17.3034038,20.0149453 L17.3517053,19.9158895 C17.4254402,19.7336352 17.4621021,19.5392965 17.4596735,19.3435672 C17.6465073,19.4463785 17.8502928,19.5171268 18.0620224,19.552685 C18.5273211,19.6076344 18.9930312,19.4535835 19.3263867,19.1344494 L19.3519581,19.1069339 C19.5603756,18.8918012 19.6510441,18.5936712 19.5963072,18.3034815 C20.0143351,18.4514183 20.4807617,18.3907117 20.843624,18.1411401 L20.8691954,18.1081215 C20.9747738,18.0275707 21.070145,17.935211 21.1533222,17.8329665 C21.3855809,17.5798233 21.5014885,17.2460606 21.4743855,16.9084459 Z M14.1950563,8.60977253 L14.1950563,8.62628183 L14.9138972,8.62628183 C14.9534907,8.62103859 14.9936369,8.62103859 15.0332304,8.62628183 L14.658183,8.09248122 C14.6001686,8.01019222 14.5076585,7.9568415 14.4053102,7.9466491 L12.1322956,7.75128908 C11.9852191,7.73202645 11.8361342,7.73202645 11.6890577,7.75128908 L7.30498085,8.36488462 L7.02085403,8.40340632 L6.00368,8.43917646 L6.67137804,8.7803686 C6.65433043,8.88217593 6.63444155,8.98123172 6.61455267,9.08303905 L7.06347305,9.08303905 L7.10040954,9.08303905 L7.32202846,9.052772 L11.777137,8.42541871 C11.8656104,8.41182775 11.9557429,8.41182775 12.0442163,8.42541871 L12.5982636,8.47219506 L14.1950563,8.60977253 Z M6.17699737,15.6317269 L5.60874372,15.4473731 C5.36448855,15.3669597 5.11039411,15.3179305 4.85296637,15.301541 C4.79148158,15.297351 4.72976873,15.297351 4.66828394,15.301541 L4.19947468,15.301541 L4.34722063,14.8420322 C4.21652229,15.0529843 4.08014141,15.2621021 3.938078,15.4693855 L3.46642747,15.3290564 L3.40676084,15.5106587 C3.37495966,15.6107489 3.39279437,15.719458 3.4550624,15.8050745 C3.51990422,15.8942318 3.62663262,15.9459109 3.73918922,15.942652 L4.4296174,15.942652 L4.66828394,15.942652 C4.91858494,15.945743 5.16685977,15.9865891 5.40417241,16.0637202 L5.80194996,16.193043 L6.45828292,16.4049123 C6.49521941,16.3361236 6.53783843,16.2618317 6.58898126,16.1847883 C6.68840095,16.065229 6.8097704,15.9644831 6.94698106,15.887621 L6.17699737,15.6317269 Z M9.73710646,17.6981406 L9.43593203,17.4807682 C9.30430664,17.663708 9.14969073,17.8300786 8.97564657,17.9760471 L9.54390022,18.3750218 C9.70835797,18.2201227 9.85856614,18.051641 9.9928206,17.8714882 L9.73710646,17.6981406 Z" id="Shape"></path>
                <path d="M22.8861038,15.3801122 C22.8005158,15.2534748 22.7149279,15.1240233 22.6350458,14.9945718 L22.2841352,15.13528 C22.1732026,15.1814034 22.0936624,15.2800077 22.0730182,15.3969972 C22.0730182,15.4138822 22.0730182,15.4335813 22.0730182,15.4504663 C22.0730231,15.6964924 21.8716654,15.896371 21.622255,15.8979184 L20.823434,15.8979184 C20.5318816,15.3923008 20.1375369,14.9515778 19.6651437,14.603403 L19.3113801,14.3444999 L15.0490999,11.2179638 C14.5610842,10.8595334 13.9786455,10.6475066 13.3715759,10.6072903 L12.5641962,10.551007 C12.4685554,10.5428013 12.3739632,10.5756125 12.3045794,10.6410603 C12.2340824,10.7046769 12.1937444,10.7944593 12.193315,10.8887067 C12.1936348,11.9582481 11.3287183,12.8326469 10.2447625,12.8586214 L10.1277923,12.8586214 C9.75976412,12.6588157 9.72552894,12.5209217 9.722676,12.5040367 C9.71847184,12.4902715 9.71847184,12.4755895 9.722676,12.4618243 C9.74641902,12.4417688 9.76665925,12.4180008 9.78258757,12.3914702 L10.0678808,11.9637173 C10.2868881,11.5137302 10.4313669,11.0320278 10.4958206,10.5369362 C10.5776882,10.1703147 10.8046844,9.85116481 11.1263185,9.65047457 L13.0149594,8.46571158 C13.1005229,8.41351076 13.1996816,8.38710172 13.3002526,8.38972916 L14.4414254,8.38972916 C14.4811814,8.3843666 14.5214925,8.3843666 14.5612485,8.38972916 C14.5946055,8.39661671 14.6271226,8.406994 14.6582482,8.42068496 L16.5468891,9.0876418 C17.0880203,9.2700037 17.6554402,9.36503074 18.227266,9.36905818 C18.6756698,9.37491496 19.1233812,9.33245078 19.5624381,9.24242081 C19.7886977,9.20333899 20.0125349,9.15166344 20.2328771,9.0876418 C20.195789,8.91316364 20.1644068,8.73587131 20.1330245,8.56139315 L20.9404042,8.14208274 C20.8891246,8.13592329 20.837099,8.14270122 20.7891988,8.16178188 L20.3669649,8.32218922 C20.0666595,8.44207418 19.7564459,8.53622745 19.4397621,8.60360561 C19.0430205,8.68570072 18.6383117,8.72439475 18.2329719,8.71898633 C17.734436,8.71076053 17.2404047,8.62431621 16.7694178,8.46289742 L14.8893357,7.82689638 C14.7437233,7.76737052 14.5876353,7.73676841 14.4300136,7.73684314 L13.2888409,7.73684314 C13.0616163,7.73654661 12.83899,7.7999869 12.6469312,7.91976379 L12.1020212,8.24339264 L10.7582903,9.0876418 C10.2788997,9.38516582 9.93993913,9.85934121 9.81682276,10.4046705 C9.81548658,10.4130615 9.81548658,10.4216069 9.81682276,10.429998 C9.76624367,10.8370261 9.65471579,11.2343982 9.48588266,11.6091326 L9.23197172,12.0087439 C9.08881529,12.1701158 9.02237621,12.3841326 9.04938408,12.5969041 C9.09503099,12.937418 9.37747124,13.2441618 9.88529312,13.5030649 C9.92427835,13.5233121 9.96694149,13.5357458 10.0108221,13.539649 C10.0108221,13.539649 10.1049689,13.539649 10.2590272,13.539649 C11.5791805,13.5117803 12.6832296,12.5420161 12.863754,11.2517338 L13.3287819,11.2855038 C13.8047102,11.316852 14.2613671,11.4829622 14.6439835,11.7639116 L19.2571744,15.1493508 C19.6897044,15.4682496 20.0428953,15.88016 20.2899358,16.3538129 C20.2976943,16.3653904 20.3043783,16.3776348 20.3099063,16.390397 C20.3676695,16.5061412 20.4872376,16.5793097 20.6180229,16.578946 L21.6251079,16.578946 C22.0094222,16.5782611 22.3675753,16.3868096 22.5779872,16.0695824 C22.6568623,15.9546557 22.7121116,15.8255804 22.7406043,15.6896702 L23.5365723,15.3632272 C23.6348188,15.3248199 23.7095764,15.2438079 23.7391304,15.1437224 L22.8861038,15.3801122 Z" id="Shape"></path>
                <path d="M6.68065834,7.96978516 C6.65401714,7.94668044 6.62371595,7.92710036 6.59069982,7.91165562 L3.90393862,6.66979735 C3.81357405,6.62648551 3.70639308,6.6196434 3.6098873,6.651026 C3.51338151,6.6824086 3.43694041,6.74896254 3.4001709,6.83361695 L0.0327235485,14.3164736 C-0.0109078495,14.4003531 -0.0109078495,14.4968193 0.0327235485,14.5806988 C0.0789781543,14.6617913 0.161607907,14.7221468 0.260618471,14.7471606 L3.17227597,15.4632108 C3.32128876,15.4972011 3.47866443,15.4467747 3.56809347,15.3363827 L3.62206858,15.2650419 C3.78099531,15.0615886 3.92193032,14.8528507 4.08085705,14.6414706 C5.38051964,12.7937999 6.27178525,10.7461662 6.7076459,8.6065678 C6.73463345,8.48238198 6.75862239,8.3608384 6.77961271,8.23665257 C6.79374305,8.13911966 6.75741633,8.04115108 6.68065834,7.96978516 Z M3.55909762,14.1764343 C3.42116122,14.3790069 3.27722758,14.579818 3.12729671,14.7788676 L2.62952622,14.6573241 L0.854344718,14.2213525 L3.93692341,7.3990588 L5.31628742,8.04112595 L6.02096251,8.36876516 C6.0029708,8.46652847 5.98198048,8.56164953 5.96099016,8.65941284 C5.54115709,10.6101718 4.72764626,12.4787636 3.55909762,14.1764343 Z" id="Shape"></path>
                <path d="M25.9679067,14.3254634 L22.5949122,6.8338533 C22.5580821,6.74909985 22.481515,6.68246806 22.3848503,6.65104875 C22.2881855,6.61962944 22.180828,6.62647955 22.0903146,6.66984206 L19.4111417,7.91315306 C19.2735655,7.97713355 19.1974873,8.11114322 19.2219176,8.24646622 C19.2219176,8.29672773 19.2399389,8.34698924 19.2519531,8.39725075 C19.2879958,8.60887815 19.3330492,8.81786021 19.3811061,9.02684227 C19.8586668,11.07746 20.7541769,13.0348911 22.0242363,14.8042704 C22.1533893,14.986799 22.2885493,15.164037 22.426713,15.3333389 C22.4578305,15.3738426 22.5002323,15.4066332 22.5498588,15.4285713 C22.6032664,15.4570099 22.664665,15.4716746 22.7270687,15.4708967 C22.7589676,15.4746134 22.7912835,15.4746134 22.8231825,15.4708967 L25.7396364,14.7540089 C25.8388101,14.7289658 25.9215759,14.6685397 25.9679067,14.5873523 C26.0106978,14.5041236 26.0106978,14.4086921 25.9679067,14.3254634 Z M23.7723065,14.5661896 L22.8712394,14.7883984 C22.7811327,14.6693579 22.691026,14.5476722 22.6069264,14.4259864 C21.388664,12.7245249 20.5317348,10.8421845 20.0779313,8.87076706 C20.0388851,8.70675582 20.005846,8.54009924 19.9728068,8.37608801 L20.8228135,7.98193197 L22.0632826,7.3999566 L25.1569463,14.2302311 L23.7723065,14.5661896 Z" id="Shape"></path>
                <path d="M12.9350096,17.860567 C12.7637297,17.7581119 12.5676507,17.6983444 12.3651625,17.68687 C12.0687118,17.6710014 11.77284,17.7263402 11.5052734,17.8477005 L11.341485,17.9248992 C11.3210114,17.9602819 11.3039501,17.992448 11.2834766,18.0213975 C11.199658,18.1461744 11.1085229,18.266448 11.0104959,18.3816579 C10.8403099,18.5862919 10.6391063,18.7662048 10.4133507,18.9156153 L10.3792281,18.9381316 C10.2253194,19.2301165 10.1558737,19.5552169 10.1779049,19.8805986 C10.2169384,20.249692 10.4382158,20.5798603 10.7750501,20.7715998 C11.0307537,20.9222807 11.3265644,21.0014741 11.6281147,20.9999792 C11.9555764,20.9971242 12.276613,20.9139843 12.5596612,20.7587334 C12.681319,20.6961961 12.795686,20.6218074 12.9008871,20.5367872 C13.066339,20.4038036 13.209055,20.2475716 13.3240071,20.0735953 C13.3571631,20.0218102 13.3867957,19.9680918 13.4127258,19.9127647 C13.5259847,19.6462872 13.5771865,19.3599814 13.5628652,19.0732293 C13.5891409,18.5940454 13.3519122,18.1358535 12.9350096,17.860567 Z M12.6176696,19.6650857 C12.4938211,19.8552434 12.3182824,20.0107223 12.1092431,20.1154112 C11.8338156,20.2700523 11.4906589,20.2700523 11.2152314,20.1154112 C10.9968469,19.9835302 10.9422507,19.7583674 11.0548553,19.4399229 L11.0753288,19.3852405 C11.1482339,19.2211798 11.237345,19.0639458 11.341485,18.9156153 C11.3887797,18.8498677 11.4476334,18.7922129 11.5155102,18.745135 C11.62258,18.6744923 11.7368936,18.6141471 11.856736,18.5650048 L11.9249812,18.5392719 C12.0325655,18.4944306 12.148592,18.4703683 12.266207,18.4685064 C12.3505579,18.4655802 12.4338597,18.4868943 12.5050651,18.529622 C12.6721868,18.6692135 12.7562973,18.8770438 12.7302741,19.0860957 L12.7302741,19.1311283 C12.7343503,19.2693518 12.7147629,19.4072911 12.6722658,19.5396379 C12.659283,19.5833061 12.6409615,19.6254043 12.6176696,19.6650857 Z" id="Shape"></path>
                <path d="M10.6592397,16.8068308 C10.2733198,16.5454254 9.80005579,16.5066133 9.38462482,16.7023002 C9.27029173,16.7528581 9.1610346,16.8169298 9.0586838,16.8934418 C8.97995438,16.9544417 8.90633382,17.0234199 8.83873986,17.0995164 C8.86228681,17.1648472 8.87917781,17.2329793 8.88908847,17.3026043 C8.91028789,17.4399874 8.83873986,17.5684106 8.69829373,17.8013645 L8.59229665,17.9835463 C8.55561261,18.0515411 8.51580974,18.1173352 8.47304994,18.1806611 C8.35028867,18.3792277 8.20608516,18.5598098 8.04376176,18.7182469 C8.01858117,18.7439404 7.99203253,18.7678776 7.96426396,18.789925 C7.9212839,19.0073912 7.90523187,19.2305181 7.91656527,19.4529475 C7.91880771,19.5160801 7.92500632,19.5789551 7.93511476,19.6411026 C7.97235924,20.1090551 8.19417441,20.53339 8.53929811,20.796912 C8.72195488,20.9290845 8.93436815,20.999557 9.15143124,21 C9.25994075,20.9980035 9.36774584,20.9799289 9.47207241,20.9462414 C9.60154616,20.9071396 9.72617553,20.8499511 9.84306219,20.7760059 C9.95259804,20.7070772 10.0563691,20.6271081 10.1531036,20.5370789 C10.1657462,20.5277733 10.1773173,20.5167384 10.1875527,20.5042264 C10.3522313,20.3474978 10.5014846,20.1712724 10.6327404,19.978587 C10.6998719,19.8869983 10.7634702,19.7874454 10.8235352,19.6799282 L10.8738838,19.5933172 C10.9897375,19.3710195 11.0890093,19.1382611 11.1706756,18.8974422 C11.2209536,18.7578133 11.258252,18.6126857 11.2819725,18.464387 C11.3825484,17.8218121 11.1386531,17.1726247 10.6592397,16.8068308 Z M9.62576817,20.0920773 C9.59520007,20.1170768 9.56334518,20.1400142 9.5303708,20.1607688 C9.34351606,20.3179791 9.09052316,20.3309935 8.8917384,20.1936213 C8.67431455,20.0141368 8.54782146,19.7267824 8.55254775,19.4230817 C8.54731024,19.3425518 8.54731024,19.2616979 8.55254775,19.181168 C8.55140978,19.1732554 8.55140978,19.1651879 8.55254775,19.1572753 C8.57753223,18.901309 8.64305121,18.6524686 8.74599242,18.4225747 C8.78124053,18.3417254 8.8201576,18.2629744 8.8625892,18.1866343 C9.00896436,17.9309625 9.18748663,17.7005854 9.3925746,17.5027057 C9.43025482,17.4746249 9.46917004,17.4487081 9.50917139,17.4250544 C9.63747102,17.3485779 9.78008263,17.3076277 9.92520992,17.3055909 C10.0574048,17.303694 10.1872315,17.3452034 10.2988496,17.4250544 C10.577922,17.6307563 10.7200359,18.0052686 10.6592397,18.3747893 C10.6313764,18.5169409 10.5896054,18.6551696 10.5346931,18.7869385 C10.4921303,18.9050517 10.4425526,19.0197976 10.3862972,19.1303961 C10.3703977,19.1632485 10.357148,19.1931144 10.3412485,19.2199937 C10.2761557,19.3358477 10.2053811,19.4475203 10.1292543,19.5544915 C9.99386031,19.7453766 9.83399392,19.9124678 9.65491737,20.0502651 L9.62576817,20.0920773 Z" id="Shape"></path>
                <path d="M7.82684221,15.0783561 C7.7846798,14.9792197 7.72475661,14.8867641 7.64938226,14.8045529 C7.36180142,14.4691392 6.88408657,14.3079997 6.41781018,14.3891274 C5.9716235,14.5057348 5.56696177,14.7225467 5.24302529,15.01856 C5.15716379,15.0902569 5.0809412,15.1705182 5.01587655,15.2577444 C4.91929823,15.391556 4.8338895,15.5314536 4.76033422,15.6763171 C4.63079058,15.9065739 4.55132257,16.1564088 4.52608708,16.4127533 C4.48616174,16.8445286 4.72358205,17.259497 5.14009852,17.4859359 C5.50658056,17.6985686 5.96562229,17.7430159 6.37521979,17.6055281 L6.52783535,17.545732 C6.8013765,17.4180229 7.0428591,17.2424374 7.23767517,17.0295972 C7.30184723,16.96524 7.36226264,16.8980126 7.41868432,16.8281788 C7.46127471,16.774677 7.5003159,16.7211752 7.53935709,16.6676735 C7.72305719,16.3900396 7.84363484,16.0831815 7.89427699,15.7644376 C7.93380589,15.5342472 7.91068469,15.299012 7.82684221,15.0783561 Z M7.05311682,15.5284004 C7.05311682,15.559872 7.05311682,15.5944908 7.05311682,15.6291096 C7.03178404,15.8501057 6.95800393,16.0646063 6.83661567,16.2585423 C6.80822208,16.3005044 6.77982849,16.3382704 6.7514349,16.3718401 C6.66888488,16.4762579 6.57497211,16.5732361 6.47104817,16.6613791 C6.38117629,16.7416146 6.27829855,16.8095024 6.16581705,16.8627976 C5.99264783,16.9488538 5.77940756,16.9403144 5.61569119,16.8407674 C5.45549871,16.7626064 5.36649277,16.6047588 5.39209165,16.4442249 C5.41709,16.2542954 5.483382,16.0704657 5.5872976,15.9029128 C5.63343719,15.8242337 5.68667518,15.7392603 5.75056076,15.6511398 C5.87486495,15.5070016 6.02905715,15.38523 6.20485824,15.2923632 C6.31400878,15.2258232 6.43359245,15.1738646 6.55977815,15.1381522 C6.58569827,15.135188 6.6119404,15.135188 6.63786053,15.1381522 C6.79547897,15.1413046 6.93549014,15.2282105 6.99278043,15.3584536 C7.01328205,15.4142989 7.02288444,15.4728374 7.02117402,15.5315476 L7.05311682,15.5284004 Z" id="Shape"></path>
                <path d="M10.170115,16.683781 C10.1462605,16.5445496 10.097827,16.4095422 10.0266047,16.2837485 C9.89566821,16.0427417 9.69097044,15.8394474 9.43600449,15.6971978 C9.04427085,15.4766044 8.56502014,15.4158495 8.11957328,15.530313 C7.99601668,15.563157 7.88139943,15.6182964 7.78287599,15.6922894 C7.62865523,15.8192555 7.49986426,15.9686404 7.40202168,16.1340431 L7.31922726,16.2542983 C7.31922726,16.2788401 7.31922726,16.3058362 7.31922726,16.3328323 C7.30263916,16.5051671 7.24526864,16.6724366 7.15087862,16.8236697 C7.12880011,16.8563922 7.1067216,16.8858424 7.08464309,16.9120204 C7.0204532,16.9934464 6.94742778,17.0690709 6.86661779,17.1378057 C6.82353664,17.2706483 6.79670308,17.4072375 6.78658319,17.5452008 C6.77750392,17.654292 6.78399512,17.7639666 6.80590189,17.8716077 C6.89263345,18.3940465 7.39327867,18.7830789 7.98710222,18.7894737 C8.16830108,18.7874138 8.34732474,18.7540738 8.51422666,18.6913062 C8.6530092,18.6396542 8.78453167,18.5737627 8.90612023,18.4949712 C8.99646452,18.4363029 9.08307224,18.3732148 9.16554273,18.3059988 C9.32528576,18.1678398 9.47118771,18.0175661 9.60159332,17.8568825 C9.65126997,17.7930737 9.70370644,17.7268106 9.75338309,17.6556392 L9.85273638,17.5206589 C10.019695,17.3344213 10.1265422,17.1113063 10.1618355,16.8752076 C10.1743859,16.8120318 10.1771715,16.7476274 10.170115,16.683781 Z M8.54734443,17.9992254 C8.27136304,18.1955604 7.95674426,18.2716402 7.7056012,18.1317515 C7.50364463,18.0132845 7.40223654,17.798021 7.44893852,17.5869219 C7.45216379,17.5332218 7.46047263,17.4798589 7.47377684,17.4273998 C7.48750621,17.3559249 7.50687271,17.2853975 7.53173293,17.2163397 C7.60060414,17.0245892 7.69316301,16.8402176 7.80771432,16.6666017 L7.86015078,16.5880677 C7.89878817,16.538984 7.92914613,16.4874461 7.96226389,16.4408165 C7.96226389,16.4408165 7.96226389,16.4408165 7.96226389,16.4408165 C8.09473496,16.2420273 8.16924993,16.1364973 8.29344156,16.1045928 C8.3785757,16.0822001 8.46684479,16.0706325 8.55562387,16.0702342 C8.73629855,16.0716989 8.91299881,16.1175645 9.06618944,16.2027603 C9.23943394,16.2998279 9.37221732,16.4446252 9.44428393,16.6150638 C9.46880733,16.6687485 9.48639876,16.7247351 9.4967204,16.7819485 C9.51879891,16.8948411 9.44428393,17.0003712 9.2980138,17.1917978 L9.18762125,17.3415032 C9.14941599,17.397377 9.10796258,17.4514424 9.06342962,17.5034796 C8.93557771,17.6666489 8.78539438,17.8150398 8.61633978,17.9452333 C8.59442797,17.9642999 8.57139735,17.9823224 8.54734443,17.9992254 Z" id="Shape"></path>
                <path d="M8.72545736,6.63157895 C8.62012,6.63149746 8.52164391,6.57401099 8.46244606,6.4780433 L6.83177605,3.8534528 C6.74020693,3.69368347 6.78008246,3.4827255 6.92193356,3.37648243 C7.06378467,3.27023937 7.25656229,3.30694573 7.35779864,3.45947454 L8.98846865,6.08406504 C9.05468614,6.19141238 9.06163506,6.33027237 9.00653004,6.44498517 C8.95142503,6.55969797 8.84328545,6.63148784 8.72545736,6.63157895 Z" id="Shape"></path>
                <path d="M11.0335229,5.52631579 C10.9070237,5.52609442 10.7988693,5.40858411 10.776915,5.2475098 L10.1774445,0.399073654 C10.1620365,0.278050192 10.1977357,0.155591877 10.2710945,0.0778275702 C10.3444532,6.32637685e-05 10.4443266,-0.0211927851 10.5330933,0.0220663718 C10.62186,0.0653255286 10.6860342,0.166527796 10.7014421,0.287551258 L11.3009127,5.13319935 C11.3121126,5.22157079 11.2956779,5.31207375 11.2552299,5.38476651 C11.2147819,5.45745926 11.1536398,5.50637651 11.0852758,5.52073967 L11.0335229,5.52631579 Z" id="Shape"></path>
                <path d="M17.2739425,6.63157895 C17.1563368,6.63148846 17.0484013,6.56018515 16.9934002,6.44624985 C16.9383992,6.33231454 16.945335,6.1943957 17.0114275,6.08777593 L18.6311451,3.47809687 C18.6931014,3.3705254 18.8036557,3.30855573 18.9194965,3.31646542 C19.0353373,3.3243751 19.1380194,3.40090468 19.1873155,3.51607254 C19.2366116,3.6312404 19.2246723,3.76670838 19.156175,3.86940487 L17.5285821,6.47620666 C17.471667,6.57013817 17.3767704,6.62804081 17.2739425,6.63157895 Z" id="Shape"></path>
                <path d="M13.8253194,5.52631063 L13.7843391,5.52631063 C13.7159596,5.51193939 13.6548036,5.46299458 13.6143464,5.39026087 C13.5738892,5.31752716 13.5574508,5.22697321 13.5686533,5.13855199 L14.1768873,0.284594805 C14.19952,0.10048469 14.3332637,-0.0250358043 14.4756121,0.0042369336 C14.6179605,0.0335096715 14.7150091,0.206490652 14.6923763,0.390600767 L14.0841424,5.24455795 C14.0629821,5.40787348 13.9533488,5.52721939 13.8253194,5.52631063 Z" id="Shape"></path>
            </g>
        </g>
    </g>
</svg>