<?xml version="1.0" encoding="UTF-8"?>
<svg width="30px" height="25px" viewBox="0 0 30 25" version="1.1" xmlns="http://www.w3.org/2000/svg" xmlns:xlink="http://www.w3.org/1999/xlink">
    <!-- Generator: Sketch 48.2 (47327) - http://www.bohemiancoding.com/sketch -->
    <title>noun_565309_cc</title>
    <desc>Created with Sketch.</desc>
    <defs></defs>
    <g id="мои-заявки" stroke="none" stroke-width="1" fill="none" fill-rule="evenodd" transform="translate(-633.000000, -226.000000)">
        <g id="noun_565309_cc" transform="translate(633.000000, 226.000000)" fill="#F1BC00" fill-rule="nonzero">
            <path d="M29.9648663,6.67447512 C29.9648663,6.44102894 29.8243313,6.20758277 29.6135288,6.12976737 L28.0676442,5.50724424 L29.6837963,4.69018262 C29.8945988,4.57345953 30,4.34001335 30,4.10656717 C30,3.873121 29.859465,3.63967482 29.6486626,3.56185943 L20.9003607,0.0990744725 C20.5138895,-0.056556312 20.1274184,-0.0176486159 19.7760809,0.137982169 L8.18194594,6.05195198 C6.53066005,6.9079213 3.36862323,7.29699826 0.733592542,6.44102894 C0.452522603,6.36321355 0.136318921,6.51884434 0.0309176934,6.8301059 C-0.074483534,7.14136747 0.101185178,7.49153674 0.382255118,7.60825983 L5.89825268,9.78709081 L0.663325057,12.4717218 C0.452522603,12.5884449 0.347121375,12.8218911 0.347121375,13.0553373 C0.347121375,13.2887835 0.487656345,13.5222296 0.6984588,13.600045 L2.27947721,14.2225682 L0.663325057,15.0785375 C0.452522603,15.1952606 0.311987633,15.4287068 0.347121375,15.6621529 C0.347121375,15.8955991 0.487656345,16.1290453 0.6984588,16.2068607 L2.27947721,16.8293838 L0.663325057,17.6853531 C0.452522603,17.8020762 0.347121375,18.0355224 0.347121375,18.2689686 C0.347121375,18.5024147 0.487656345,18.7358609 0.6984588,18.8136763 L2.27947721,19.4361995 L0.663325057,20.2921688 C0.452522603,20.4088919 0.347121375,20.642338 0.347121375,20.8757842 C0.347121375,21.1092304 0.487656345,21.3426766 0.6984588,21.420492 L9.41162693,24.8832769 C9.58729564,24.9610923 9.76296435,25 9.93863306,25 C10.1494355,25 10.3953717,24.9610923 10.6061742,24.8443692 L29.6486626,15.0785375 C29.859465,14.9618144 29.9648663,14.7283682 29.9648663,14.494922 C29.9648663,14.2614759 29.8243313,14.0280297 29.6135288,13.9502143 L28.0325104,13.3276912 L29.6486626,12.4717218 C29.859465,12.3549988 29.9648663,12.1215526 29.9648663,11.8881064 C29.9648663,11.6546602 29.8243313,11.421214 29.6135288,11.3433987 L28.0325104,10.7208755 L29.6486626,9.8649062 C29.859465,9.74818311 29.9648663,9.51473694 29.9648663,9.28129076 C29.9648663,9.04784458 29.8243313,8.81439841 29.6135288,8.73658301 L28.0325104,8.11405988 L29.6486626,7.25809056 C29.859465,7.14136747 30,6.9079213 29.9648663,6.67447512 Z M27.9973767,6.75229051 L23.1489202,9.28129076 L23.1489202,8.07515218 L26.6974282,6.24649046 L27.9973767,6.75229051 Z M20.1976859,1.22739766 C20.3030871,1.18848996 20.3733546,1.18848996 20.4787558,1.22739766 C20.4787558,1.22739766 20.4787558,1.22739766 20.4787558,1.22739766 L27.9622429,4.18438257 L22.4462454,7.02464438 L14.8222233,3.98984409 L20.1976859,1.22739766 Z M13.4871411,4.72909031 L22.0949079,8.11405988 L22.0949079,17.6853531 L19.9868834,18.8914917 L19.9868834,9.43692155 C19.9868834,9.16456767 19.635546,8.9311215 19.4247435,8.8533061 L11.5547852,5.74069041 L13.4871411,4.72909031 Z M4.94964164,8.11405988 C6.39012508,7.99733679 7.69007355,7.64716752 8.63868459,7.18027517 L9.97376681,6.47993664 L17.5977889,9.51473694 L17.2815852,9.67036772 C15.6302993,10.526337 12.4682625,10.915414 9.86836558,10.0594447 L4.94964164,8.11405988 Z M7.37386986,10.3707063 L9.51702815,11.2266756 C10.6413079,11.6157525 11.8709889,11.7713833 13.0304024,11.7713833 C14.857357,11.7713833 16.7897128,11.3823064 17.9491263,10.7986909 L18.9328711,10.4096139 L18.9328711,11.6157525 L10.360238,15.8955991 C10.2548367,15.9734145 10.0089005,15.9734145 9.90349932,15.8955991 L2.42001218,12.9386142 L7.37386986,10.3707063 Z M9.41162693,17.06283 C9.58729564,17.1406454 9.76296435,17.1795531 9.93863306,17.1795531 C10.1494355,17.1795531 10.6061742,17.1406454 10.8169766,17.0239223 L18.9328711,12.9775219 L18.9328711,14.2225682 L10.360238,18.5024147 C10.2548367,18.5802301 10.0089005,18.5802301 9.90349932,18.5024147 L2.42001218,15.5454298 L3.82536188,14.8061836 L9.41162693,17.06283 Z M9.41162693,19.6696456 C9.58729564,19.747461 9.76296435,19.7863687 9.93863306,19.7863687 C10.1494355,19.7863687 10.6061742,19.747461 10.8169766,19.6307379 L18.9328711,15.5843375 L18.9328711,16.8293838 L10.360238,21.1092304 C10.2548367,21.1870458 10.0089005,21.1870458 9.90349932,21.1092304 L2.42001218,18.1522455 L3.82536188,17.4129993 L9.41162693,19.6696456 Z M10.360238,23.716046 C10.2548367,23.7938614 10.0089005,23.7938614 9.90349932,23.716046 L2.42001218,20.7590611 L3.82536188,20.0198149 L9.44676067,22.2764613 C9.62242938,22.3542767 9.79809809,22.3931844 9.97376681,22.3931844 C10.1845693,22.3931844 10.6413079,22.3542767 10.8521104,22.2375536 L18.9328711,18.1911532 L18.9328711,19.4361995 L10.360238,23.716046 Z M27.9973767,14.5727374 L23.1489202,17.1017377 L23.1489202,15.8566914 L26.6622945,14.0280297 L27.9973767,14.5727374 Z M27.9973767,11.9659218 L23.1489202,14.494922 L23.1489202,13.2498758 L26.6622945,11.421214 L27.9973767,11.9659218 Z M27.9973767,9.35910615 L23.1489202,11.8881064 L23.1489202,10.6430601 L26.6622945,8.81439841 L27.9973767,9.35910615 Z" id="Shape"></path>
        </g>
    </g>
</svg>