<?xml version="1.0" encoding="UTF-8"?>
<svg width="30px" height="30px" viewBox="0 0 30 30" version="1.1" xmlns="http://www.w3.org/2000/svg" xmlns:xlink="http://www.w3.org/1999/xlink">
    <!-- Generator: Sketch 48.2 (47327) - http://www.bohemiancoding.com/sketch -->
    <title>Group</title>
    <desc>Created with Sketch.</desc>
    <defs></defs>
    <g id="мои-заявки" stroke="none" stroke-width="1" fill="none" fill-rule="evenodd" transform="translate(-634.000000, -345.000000)" fill-opacity="0.5">
        <g id="Group" transform="translate(634.000000, 345.000000)" fill="#000000" fill-rule="nonzero">
            <path d="M15,0 C6.71428571,0 0,6.71428571 0,15 C0,23.2857143 6.71428571,30 15,30 C23.2857143,30 30,23.2857143 30,15 C30,6.71428571 23.2857143,0 15,0 Z M15,28.5714286 C7.5,28.5714286 1.42857143,22.5 1.42857143,15 C1.42857143,7.5 7.5,1.42857143 15,1.42857143 C22.5,1.42857143 28.5714286,7.5 28.5714286,15 C28.5714286,22.5 22.5,28.5714286 15,28.5714286 Z" id="Shape"></path>
            <path d="M19.7857143,10.2142857 C19.5,9.92857143 19.0714286,9.92857143 18.7857143,10.2142857 L15,14 L11.2142857,10.2142857 C10.9285714,9.92857143 10.5,9.92857143 10.2142857,10.2142857 C9.92857143,10.5 9.92857143,10.9285714 10.2142857,11.2142857 L14,15 L10.2142857,18.7857143 C9.92857143,19.0714286 9.92857143,19.5 10.2142857,19.7857143 C10.3571429,19.9285714 10.5357143,20 10.7142857,20 C10.8928571,20 11.0714286,19.9285714 11.2142857,19.7857143 L15,16 L18.7857143,19.7857143 C18.9285714,19.9285714 19.1071429,20 19.2857143,20 C19.4642857,20 19.6428571,19.9285714 19.7857143,19.7857143 C20.0714286,19.5 20.0714286,19.0714286 19.7857143,18.7857143 L16,15 L19.7857143,11.2142857 C20.0714286,10.9285714 20.0714286,10.4642857 19.7857143,10.2142857 Z" id="Shape"></path>
        </g>
    </g>
</svg>