<?xml version="1.0" encoding="UTF-8"?>
<svg width="28px" height="28px" viewBox="0 0 28 28" version="1.1" xmlns="http://www.w3.org/2000/svg" xmlns:xlink="http://www.w3.org/1999/xlink">
    <!-- Generator: Sketch 48.2 (47327) - http://www.bohemiancoding.com/sketch -->
    <title>noun_1382540_cc copy</title>
    <desc>Created with Sketch.</desc>
    <defs></defs>
    <g id="мои-заявки" stroke="none" stroke-width="1" fill="none" fill-rule="evenodd" transform="translate(-638.000000, -533.000000)">
        <g id="noun_1382540_cc-copy" transform="translate(638.000000, 533.000000)" fill="#4CCC80" fill-rule="nonzero">
            <g id="Group">
                <path d="M0,3.91176471 L0,26.0882353 C0,27.1588235 0.879411765,28 1.91176471,28 L24.0882353,28 C25.1588235,28 26,27.1205882 26,26.0882353 L26,9.11176471 C26,8.69117647 25.6558824,8.34705882 25.2352941,8.34705882 C24.8147059,8.34705882 24.4705882,8.69117647 24.4705882,9.11176471 L24.4705882,26.0882353 C24.4705882,26.3176471 24.2794118,26.4705882 24.0882353,26.4705882 L1.91176471,26.4705882 C1.68235294,26.4705882 1.52941176,26.2794118 1.52941176,26.0882353 L1.52941176,3.91176471 C1.52941176,3.68235294 1.72058824,3.52941176 1.91176471,3.52941176 L18.7352941,3.52941176 C19.1558824,3.52941176 19.5,3.18529412 19.5,2.76470588 C19.5,2.34411765 19.1558824,2 18.7352941,2 L1.91176471,2 C0.879411765,2 0,2.87941176 0,3.91176471 Z" id="Shape"></path>
                <path d="M27.7023517,0.177547518 C27.3495834,-0.0930010807 26.8792256,-0.0543512809 26.6048503,0.293496917 L12.2589382,17.3380586 C12.1805452,17.454008 12.0629558,17.4926578 11.9845628,17.4926578 C11.9061699,17.4926578 11.7885804,17.4926578 11.670991,17.4153582 L7.28098512,13.6276778 C6.96741327,13.3571292 6.45785902,13.395779 6.18348365,13.7049774 C5.90910828,14.0141758 5.94830477,14.5166232 6.26187661,14.7871718 L10.691079,18.5362024 C11.0438473,18.8454008 11.5142051,19 11.9845628,19 C12.0237593,19 12.1021523,19 12.1413488,19 C12.6900995,18.9613502 13.1604573,18.6908016 13.4740291,18.3043036 L27.8199412,1.22109211 C28.0943165,0.911893713 28.0551201,0.448096116 27.7023517,0.177547518 Z" id="Shape"></path>
            </g>
        </g>
    </g>
</svg>