<?xml version="1.0" encoding="UTF-8"?>
<svg width="30px" height="30px" viewBox="0 0 30 30" version="1.1" xmlns="http://www.w3.org/2000/svg" xmlns:xlink="http://www.w3.org/1999/xlink">
    <!-- Generator: Sketch 48.2 (47327) - http://www.bohemiancoding.com/sketch -->
    <title>Shape</title>
    <desc>Created with Sketch.</desc>
    <defs></defs>
    <g id="мои-заявки" stroke="none" stroke-width="1" fill="none" fill-rule="evenodd" transform="translate(-634.000000, -410.000000)">
        <g id="пакет-загружен" transform="translate(634.000000, 410.000000)" fill="#4CCC80" fill-rule="nonzero">
            <path d="M17.1615744,27.8527061 C11.0852088,29.1513219 5.01650712,25.8059382 2.72829017,19.8991983 C0.555031492,14.290673 2.41443585,7.97061828 7.14013302,4.50527609 L6.68796383,7.63054911 C6.61387962,8.14102656 6.95802453,8.61600229 7.45654197,8.69186387 C7.50179538,8.69859052 7.54668385,8.70195384 7.59120737,8.70195384 C8.03607761,8.70195384 8.42547594,8.36823761 8.49262616,7.90447296 L9.18967471,3.08782295 C9.2254395,2.84267419 9.16412842,2.593041 9.01997441,2.39423133 C8.87545544,2.19504796 8.66013678,2.06313102 8.42073163,2.02688189 L3.71766117,1.31460515 C3.21147984,1.23874357 2.75529624,1.59189232 2.68157697,2.10199607 C2.6078577,2.61247352 2.95200261,3.08744925 3.4501551,3.16293713 L5.45553822,3.46675717 C0.513427548,7.51283286 -1.35546543,14.4267006 1.03238201,20.5883055 C3.27023629,26.366118 8.67290992,30.0003737 14.5376063,30 C15.5273422,30 16.5313111,29.8964844 17.5345501,29.6819793 C18.0279583,29.5765952 18.3443672,29.0818132 18.2414522,28.5765676 C18.1381722,28.0709483 17.652063,27.7465746 17.1615744,27.8527061 Z M26.9742753,26.8257099 L24.7832348,26.4911203 C29.5470962,22.3948415 31.3169372,15.5647026 28.9667607,9.46614946 C26.3508708,2.67510866 19.4091085,-1.17154377 12.4658863,0.319071644 C11.9724186,0.424711727 11.6556064,0.922460732 11.7585339,1.43073615 C11.8614613,1.93938751 12.3450743,2.26683418 12.837812,2.15931438 C18.9134508,0.854790928 24.9817898,4.2206118 27.2706479,10.1601409 C29.3748205,15.6203422 27.7024321,21.7512265 23.3104964,25.3008837 L23.7375358,22.332059 C23.811629,21.8185203 23.4674425,21.3406963 22.9688649,21.2643798 C22.4724773,21.1891912 22.0063839,21.5429539 21.9326557,22.0561165 L21.2355231,26.9001467 C21.1997539,27.1467655 21.2607074,27.3978957 21.4052438,27.5978976 C21.5494152,27.7982754 21.7647599,27.9313593 22.0045589,27.9678258 L26.7071019,28.6855017 C26.7523608,28.6922687 26.7972547,28.6956522 26.8417835,28.6956522 C27.2867075,28.6956522 27.6761528,28.3599348 27.7433111,27.8933891 C27.8174043,27.3798504 27.4732178,26.9020264 26.9742753,26.8257099 Z" id="Shape"></path>
        </g>
    </g>
</svg>