<?xml version="1.0" encoding="UTF-8"?>
<svg width="30px" height="30px" viewBox="0 0 30 30" version="1.1" xmlns="http://www.w3.org/2000/svg" xmlns:xlink="http://www.w3.org/1999/xlink">
    <!-- Generator: Sketch 48.2 (47327) - http://www.bohemiancoding.com/sketch -->
    <title>Group</title>
    <desc>Created with Sketch.</desc>
    <defs></defs>
    <g id="мои-заявки" stroke="none" stroke-width="1" fill="none" fill-rule="evenodd" transform="translate(-634.000000, -282.000000)">
        <g id="spreadsheet" transform="translate(127.000000, 159.000000)" fill="#4CCC80" fill-rule="nonzero">
            <g id="2-str" transform="translate(26.000000, 123.000000)">
                <g id="ico" transform="translate(481.000000, 0.000000)">
                    <g id="Group">
                        <path d="M15,0 C6.71428571,0 0,6.71428571 0,15 C0,23.2857143 6.71428571,30 15,30 C23.2857143,30 30,23.2857143 30,15 C30,6.71428571 23.2857143,0 15,0 Z M15,28.5714286 C7.5,28.5714286 1.42857143,22.5 1.42857143,15 C1.42857143,7.5 7.5,1.42857143 15,1.42857143 C22.5,1.42857143 28.5714286,7.5 28.5714286,15 C28.5714286,22.5 22.5,28.5714286 15,28.5714286 Z" id="Shape"></path>
                        <path d="M22.2357571,9.32168516 L12.4053598,19.1209903 L7.76424288,14.4945526 C7.47188906,14.2031234 7.03335832,14.2031234 6.7410045,14.4945526 C6.44865067,14.7859817 6.44865067,15.2231254 6.7410045,15.5145546 L11.8937406,20.6509934 C12.0399175,20.7967079 12.2226387,20.8695652 12.4053598,20.8695652 C12.588081,20.8695652 12.7708021,20.7967079 12.916979,20.6509934 L23.2589955,10.3416872 C23.5513493,10.050258 23.5513493,9.61311431 23.2589955,9.32168516 C22.9666417,9.06668466 22.5281109,9.06668466 22.2357571,9.32168516 Z" id="Shape"></path>
                    </g>
                </g>
            </g>
        </g>
    </g>
</svg>