
<svg width="50px" height="60px" viewBox="0 0 50 60" version="1.1" xmlns="http://www.w3.org/2000/svg" xmlns:xlink="http://www.w3.org/1999/xlink">
    <desc>Created with Sketch.</desc>
    <defs></defs>
    <g id="Page-1" stroke="none" stroke-width="1" fill="none" fill-rule="evenodd" fill-opacity="0.5">
        <g id="регистрация-ИП-7.1-шаг" transform="translate(-307.000000, -399.000000)" fill="#000000" fill-rule="nonzero">
            <g id="noun_1396786_cc" transform="translate(307.000000, 399.000000)">
                <path d="M40,36.5 C40,36.2238576 39.5522847,36 39,36 L33,36 C32.4477153,36 32,36.2238576 32,36.5 C32,36.7761424 32.4477153,37 33,37 L39,37 C39.5522847,37 40,36.7761424 40,36.5 Z" id="Shape"></path>
                <path d="M39.1,24 L31.9,24 C31.4029437,24 31,24.2238576 31,24.5 C31,24.7761424 31.4029437,25 31.9,25 L39.1,25 C39.5970563,25 40,24.7761424 40,24.5 C40,24.2238576 39.5970563,24 39.1,24 Z" id="Shape"></path>
                <path d="M29,24.5 C29,24.2238576 28.5522847,24 28,24 L22,24 C21.4477153,24 21,24.2238576 21,24.5 C21,24.7761424 21.4477153,25 22,25 L28,25 C28.5522847,25 29,24.7761424 29,24.5 Z" id="Shape"></path>
                <path d="M22,31 C21.4477153,31 21,31.2238576 21,31.5 C21,31.7761424 21.4477153,32 22,32 L24,32 C24.5522847,32 25,31.7761424 25,31.5 C25,31.2238576 24.5522847,31 24,31 L22,31 Z" id="Shape"></path>
                <path d="M22,20 L32,20 C32.5522847,20 33,19.7761424 33,19.5 C33,19.2238576 32.5522847,19 32,19 L22,19 C21.4477153,19 21,19.2238576 21,19.5 C21,19.7761424 21.4477153,20 22,20 Z" id="Shape"></path>
                <path d="M28,32 L38,32 C38.5522847,32 39,31.7761424 39,31.5 C39,31.2238576 38.5522847,31 38,31 L28,31 C27.4477153,31 27,31.2238576 27,31.5 C27,31.7761424 27.4477153,32 28,32 Z" id="Shape"></path>
                <path d="M33,43 C32.4477153,43 32,43.2238576 32,43.5 C32,43.7761424 32.4477153,44 33,44 L35,44 C35.5522847,44 36,43.7761424 36,43.5 C36,43.2238576 35.5522847,43 35,43 L33,43 Z" id="Shape"></path>
                <path d="M29.1,36 L21.9,36 C21.4029437,36 21,36.2238576 21,36.5 C21,36.7761424 21.4029437,37 21.9,37 L29.1,37 C29.5970563,37 30,36.7761424 30,36.5 C30,36.2238576 29.5970563,36 29.1,36 Z" id="Shape"></path>
                <path d="M29.1,43 L21.9,43 C21.4029437,43 21,43.2238576 21,43.5 C21,43.7761424 21.4029437,44 21.9,44 L29.1,44 C29.5970563,44 30,43.7761424 30,43.5 C30,43.2238576 29.5970563,43 29.1,43 Z" id="Shape"></path>
                <path d="M42.4593701,58.0000338 L4.78865076,58.0000338 C3.20183149,58.0000338 1.91546031,56.6569107 1.91546031,55.0000844 L1.91546031,5.00092875 C1.91897164,3.34562347 3.20328821,2.00464566 4.78865076,2.00097941 L35.0401539,2.00097941 L44.3365212,11.7008156 C44.7120684,12.1002948 45.326668,12.1062643 45.7092678,11.7141487 C46.0918675,11.3220332 46.0975847,10.6803188 45.7220375,10.2808396 L36.144736,0.281008455 C35.9554073,0.0899161691 35.6990758,-0.0113531155 35.4360156,0.00101318356 L4.78865076,0.00101318356 C2.14541025,0.00468564952 0.00351729077,2.24107425 0,5.00092875 L0,55.0000844 C0,57.7614616 2.14395197,60 4.78865076,60 L42.4593701,60 C42.9883099,60 43.4171003,59.5522923 43.4171003,59.0000169 C43.4171003,58.4477415 42.9883099,58.0000338 42.4593701,58.0000338 Z" id="Shape"></path>
                <path d="M29.1,48 L21.9,48 C21.4029437,48 21,48.2238576 21,48.5 C21,48.7761424 21.4029437,49 21.9,49 L29.1,49 C29.5970563,49 30,48.7761424 30,48.5 C30,48.2238576 29.5970563,48 29.1,48 Z" id="Shape"></path>
                <path d="M18,20 C18,19.4477153 17.5522847,19 17,19 L11,19 C10.4477153,19 10,19.4477153 10,20 L10,26 C10,26.5522847 10.4477153,27 11,27 L17,27 C17.5522847,27 18,26.5522847 18,26 L18,20 Z M16,25 L12,25 L12,21.0133333 L16,21.0133333 L16,25 Z" id="Shape"></path>
                <path d="M11,51 L17,51 C17.5522847,51 18,50.5522847 18,50 L18,44 C18,43.4477153 17.5522847,43 17,43 L11,43 C10.4477153,43 10,43.4477153 10,44 L10,50 C10,50.5522847 10.4477153,51 11,51 Z M12,45 L16,45 L16,49 L12,49 L12,45 Z" id="Shape"></path>
                <path d="M11,39 L17,39 C17.5522847,39 18,38.5522847 18,38 L18,32 C18,31.4477153 17.5522847,31 17,31 L11,31 C10.4477153,31 10,31.4477153 10,32 L10,38 C10,38.5522847 10.4477153,39 11,39 Z M12,33 L16,33 L16,37 L12,37
L12,33 Z" id="Shape"></path>
                <path d="M49.9999462,16.3044717 L49.9999462,54.4052161 C50.00389,55.4761219 49.7908109,56.535581 49.3749485,57.5127936 C49.2078473,57.8149705 48.9006762,58.0005902 48.5687014,57.9999986 C48.2328327,57.9992412 47.9230105,57.8092683 47.7565116,57.5019902 C47.5900127,57.1947121 47.5922796,56.8170837 47.7624543,56.5120483 C48.0136103,55.8411023 48.142934,55.1264418 48.1437029,54.4052161 L48.1437029,15.8633537 L39.6874832,15.8633537 C37.0986577,15.8633537 35,13.652586 35,10.9254657 L35,5.98757761 C35,5.44215356 35.4197315,5 35.9374966,5 C36.4552617,5 36.8749933,5.44215356 36.8749933,5.98757761 L36.8749933,10.9254657 C36.8749933,12.5617378 38.1341879,13.8881985 39.6874832,13.8881985 L49.0624496,13.8881985 C49.5802147,13.8881985 49.9999462,14.3303521 49.9999462,14.8757761 L49.9999462,16.3044717 Z" id="Shape"></path>
            </g>
        </g>
    </g>
</svg>