<svg width="183px" height="117px" viewBox="0 0 183 117" version="1.1" xmlns="http://www.w3.org/2000/svg" xmlns:xlink="http://www.w3.org/1999/xlink">
    <desc>Created with Sketch.</desc>
    <defs>
        <filter x="-0.7%" y="-1.0%" width="101.5%" height="101.9%" filterUnits="objectBoundingBox" id="filter-1">
            <feOffset dx="0" dy="0" in="SourceAlpha" result="shadowOffsetOuter1"></feOffset>
            <feGaussianBlur stdDeviation="2" in="shadowOffsetOuter1" result="shadowBlurOuter1"></feGaussianBlur>
            <feColorMatrix values="0 0 0 0 0 0 0 0 0 0 0 0 0 0 0 0 0 0 0.097826087 0" type="matrix" in="shadowBlurOuter1" result="shadowMatrixOuter1"></feColorMatrix>
            <feMerge>
                <feMergeNode in="shadowMatrixOuter1"></feMergeNode>
                <feMergeNode in="SourceGraphic"></feMergeNode>
            </feMerge>
        </filter>
    </defs>
    <g id="Page-1" stroke="none" stroke-width="1" fill="none" fill-rule="evenodd" fill-opacity="0.11">
        <g id="регистрация-ИП-8-шаг-" transform="translate(-648.000000, -477.000000)" fill="#000000" fill-rule="nonzero">
            <g id="menubar" filter="url(#filter-1)" transform="translate(-9.000000, 2.000000)">
                <g id="noun_567813_cc" transform="translate(661.000000, 478.000000)">
                    <g id="Group">
                        <path d="M77.3255814,0.731984842 C55.7606733,0.731984842 37.8132552,16.6429238 34.9109738,37.3004059 C15.4747047,38.2101827 0,53.9572143 0,73.4898796 C0,93.6088522 16.3712439,109.868827 36.627907,109.868827 L46.8023256,109.868827 C47.5361777,109.879135 48.2187702,109.496195 48.588725,108.866642 C48.9586798,108.237089 48.9586798,107.45846 48.588725,106.828907 C48.2187702,106.199354 47.5361777,105.816414 46.8023256,105.826722 L36.627907,105.826722 C18.5555003,105.826722 4.06976744,91.4394543 4.06976744,73.4898796 C4.06976744,55.5403048 18.5555044,41.1530375 36.627907,41.1530375 C37.6812331,41.1575485 38.5639548,40.3630193 38.6627907,39.3214585 C40.6137578,19.9381086 57.2656407,4.77409011 77.3255814,4.77409011 C88.2289625,4.77409011 97.2871253,9.04946526 104.351381,16.2688269 C104.907845,16.8474429 105.755593,17.0455573 106.513445,16.7740901 C109.778253,15.5429457 114.178323,14.8793533 118.023256,14.8793533 C133.65227,14.8793533 146.713948,26.3613575 148.546512,41.3425112 C148.622808,42.1193348 149.142611,42.7831098 149.881904,43.0477743 C162.308058,47.5784488 170.930233,59.4698375 170.930233,73.4898796 C170.930233,91.4394543 156.4445,105.826722 138.372093,105.826722 L128.197674,105.826722 C127.463822,105.816414 126.78123,106.199354 126.411275,106.828907 C126.04132,107.45846 126.04132,108.237089 126.411275,108.866642 C126.78123,109.496195 127.463822,109.879135 128.197674,109.868827 L138.372093,109.868827 C158.628756,109.868827 175,93.6088522 175,73.4898796 C175,58.2665027 165.736924,45.3142029 152.361919,39.8898796 C149.813626,23.3825078 135.308675,10.837248 118.023256,10.837248 C114.162772,10.837248 110.04317,11.4845709 106.386265,12.6688269 C98.7651692,5.26805558 88.8908532,0.731984842 77.3255814,0.731984842 Z M87.2456395,47.1530375 C86.1974389,47.283487 85.4240161,48.1888253 85.4651163,49.237248 L85.4651163,92.3740901 L74.7819767,80.2477743 C74.3955004,79.7683934 73.810549,79.4895252 73.1922238,79.4898796 C72.3821475,79.4960252 71.6528867,79.9787767 71.3354392,80.7190222 C71.0179918,81.4592677 71.1728204,82.3160164 71.7296512,82.9004059 L85.9738372,99.0688269 C86.3601604,99.5037995 86.9160092,99.7529756 87.5,99.7529756 C88.0839908,99.7529756 88.6398396,99.5037995 89.0261628,99.0688269 L103.270349,82.9004059 C103.822719,82.3705588 104.027762,81.5770127 103.800548,80.848459 C103.573334,80.1199054 102.952558,79.5804182 102.195349,79.4534564 C101.43814,79.3264945 100.673452,79.6336799 100.218023,80.2477743 L89.5348837,92.3740901 L89.5348837,49.237248 C89.5582564,48.643578 89.317467,48.0697604 88.8765091,47.6682964 C88.4355512,47.2668325 87.8390881,47.0783852 87.2456395,47.1530375 Z M62.8270349,93.637248 C61.7788342,93.7676975 61.0054114,94.6730359 61.0465116,95.7214585 L61.0465116,107.847774 C61.046624,108.963925 61.9576066,109.868715 63.0813953,109.868827 L111.918605,109.868827
C113.042393,109.868715 113.953376,108.963925 113.953488,107.847774 L113.953488,95.7214585 C113.963867,94.9925944 113.578306,94.3146415 112.944445,93.9472012 C112.310583,93.579761 111.526626,93.579761 110.892765,93.9472012 C110.258903,94.3146415 109.873342,94.9925944 109.883721,95.7214585 L109.883721,105.826722 L65.1162791,105.826722 L65.1162791,95.7214585 C65.1396518,95.1277886 64.8988623,94.5539709 64.4579044,94.152507 C64.0169465,93.751043 63.4204835,93.5625957 62.8270349,93.637248 Z" id="Shape"></path>
                    </g>
                </g>
            </g>
        </g>
    </g>
</svg>