<svg width="66px" height="68px" viewBox="0 0 66 68" version="1.1" xmlns="http://www.w3.org/2000/svg" xmlns:xlink="http://www.w3.org/1999/xlink">
    <desc>Created with Sketch.</desc>
    <defs></defs>
    <g id="Page-1" stroke="none" stroke-width="1" fill="none" fill-rule="evenodd" fill-opacity="0.2">
        <g id="шаг-3-иностранный-гражданин" transform="translate(-994.000000, -522.000000)" fill="#000000" fill-rule="nonzero">
            <g id="паспорт" transform="translate(976.000000, 259.000000)">
                <g id="noun_648895_cc" transform="translate(18.000000, 263.000000)">
                    <path d="M65.6202538,58.34 L65.6202538,67.48 L0.770019531,67.48 L0.770253812,58.34 C0.75379247,56.4095689 1.60554773,54.5738894 3.09025381,53.34 C8.96664805,48.6022026 15.3368044,44.5118917 22.0902538,41.14 C22.2923746,41.0407758 22.4203979,40.8351626 22.4202538,40.61 L22.4202538,34.49 C21.5093099,32.948456 20.8858631,31.2543071 20.5802538,29.49 C19.8802538,29.43 18.9502538,28.49 17.9502538,24.91 C16.6602538,20.36 17.8702538,19.46 19.0402538,19.47 C18.4202538,16.81 16.8402538,7.59 23.7102538,3.4 C22.8848408,2.70337116 22.4060849,1.68007607 22.4002538,0.6 C22.4002538,0.6 30.2302538,1.49 34.0202538,0.7 C37.8102538,-0.09 41.8902538,2.9 42.5302538,5.76 C42.5302538,5.76 50.2202538,5.76 47.2302538,19.48 C48.4302538,19.43 49.7302538,20.25 48.4102538,24.92 C47.4102538,28.45 46.4802538,29.44 45.7802538,29.5 C45.4746446,31.2643071 44.8511977,32.958456 43.9402538,34.5 L43.9402538,40.65 C43.9401098,40.8751626 44.0681331,41.0807758 44.2702538,41.18 C51.0237032,44.5518917 57.3938596,48.6422026 63.2702538,53.38 C64.7553134,54.5991789 65.617336,56.4185967 65.6202538,58.34 Z" id="Shape"></path>
                </g>
            </g>
        </g>
    </g>
</svg>