<svg width="60px" height="60px" viewBox="0 0 60 60" version="1.1" xmlns="http://www.w3.org/2000/svg" xmlns:xlink="http://www.w3.org/1999/xlink">
    <desc>Created with Sketch.</desc>
    <defs></defs>
    <g id="Page-1" stroke="none" stroke-width="1" fill="none" fill-rule="evenodd">
        <g id="регистрация-ИП-7.1-шаг" transform="translate(-452.000000, -399.000000)" fill="#797979" fill-rule="nonzero">
            <g id="noun_850707_cc" transform="translate(452.000000, 399.000000)">
                <path d="M59.0913333,45.3333333 L0.909333333,45.3333333 C0.406666667,45.3333333 0,44.9296673 0,44.4307095 L0,26.2352954 C0,25.7363377 0.406666667,25.3333333 0.909333333,25.3333333 L59.0913333,25.3333333 C59.5933333,25.3333333 60,25.7363377 60,26.2352954 L60,44.4307095 C60,44.9296673 59.5933333,45.3333333 59.0913333,45.3333333 Z M1.818,43.5287474 L58.1813333,43.5287474 L58.1813333,27.1372575 L1.818,27.1372575 L1.818,43.5287474 Z" id="Shape"></path>
                <path d="M59.0913333,60 L0.909333333,60 C0.406666667,60 0,59.597476 0,59.1005898 L0,44.8994102 C0,44.4018641 0.406666667,44 0.909333333,44 L59.0913333,44 C59.5933333,44 60,44.4018641 60,44.8994102 L60,59.1005898 C60,59.597476 59.5933333,60 59.0913333,60 Z M1.818,58.1998598 L58.1813333,58.1998598 L58.1813333,45.7994803 L1.818,45.7994803 L1.818,58.1998598 Z" id="Shape"></path>
                <path d="M51.1047352,60 L8.89526482,60 C8.40066878,60 8,59.5712277 8,59.04194 L8,48.9587629 C8,48.4287723 8.40066878,48 8.89526482,48 L51.1047352,48 C51.5999881,48 52,48.4287723 52,48.9587629 L52,59.04194 C52,59.5712277 51.5999881,60 51.1047352,60 Z M9.79118648,58.0824742 L50.2088135,58.0824742 L50.2088135,49.9168229 L9.79118648,49.9168229 L9.79118648,58.0824742 Z" id="Shape"></path>
                <path d="M51.1047352,41.3333333 L8.89526482,41.3333333 C8.40066878,41.3333333 8,40.8968681 8,40.3564825 L8,35.6435175 C8,35.1031319 8.40066878,34.6666667 8.89526482,34.6666667 L51.1047352,34.6666667 C51.5999881,34.6666667 52,35.1031319 52,35.6435175 L52,40.3564825 C52,40.8961514 51.5999881,41.3333333 51.1047352,41.3333333 Z M9.79118648,39.3781982 L50.2088135,39.3781982 L50.2088135,36.6196517 L9.79118648,36.6196517 L9.79118648,39.3781982 Z" id="Shape"></path>
                <path d="M49.3333333,33.3333333 C47.8627049,33.3333333 46.6666667,32.1370717 46.6666667,30.6663253 C46.6666667,29.1969445 47.8627049,28 49.3333333,28 C50.8039617,28 52,29.1969445 52,30.6663253 C52,32.1370717 50.8039617,33.3333333 49.3333333,33.3333333 Z M49.3333333,29.8619895 C48.8907104,29.8619895 48.5293716,30.2218239 48.5293716,30.6663253 C48.5293716,31.109461 48.8900273,31.4720266 49.3333333,31.4720266 C49.7766393,31.4720266 50.1372951,31.1101438 50.1372951,30.6663253 C50.1372951,30.2218239 49.7759563,29.8619895 49.3333333,29.8619895 Z" id="Shape"></path>
                <path d="M44.4282304,26.6666667 L15.5717696,26.6666667 C15.0714415,26.6666667 14.6666667,26.2704048 14.6666667,25.7797949 L14.6666667,0.886871792 C14.6673302,0.396912541 15.0714415,0 15.5717696,0 L44.4282304,0 C44.9285585,0 45.3333333,0.396912541 45.3333333,0.886871792 L45.3333333,25.7797949 C45.3333333,26.2704048 44.9285585,26.6666667 44.4282304,26.6666667 Z M16.4768726,24.8929231 L43.523791,24.8929231 L43.523791,1.77504494 L16.4768726,1.77504494 L16.4768726,24.8929231 Z" id="Shape"></path>
                <path d="M16.3625642,26.6666667 L8.97005744,26.6666667 C8.43414163,26.6666667 8,26.2767422 8,25.7939786 L8,12.8726881 C8,12.3905647 8.43414163,12 8.97005744,12 L16.3625642,12 C16.8991917,12 17.3333333,12.3905647 17.3333333,12.8726881 L17.3333333,25.7939786 C17.3333333,26.2767422 16.8991917,26.6666667 16.3625642,26.6666667 Z M9.9408266,24.9212904 L15.3925067,24.9212904 L15.3925067,13.7466568 L9.9408266,13.7466568 L9.9408266,24.9212904 Z" id="Shape"></path>
                <path d="M52.3632759,26.6666667 L44.9700574,26.6666667 C44.4341416,26.6666667 44,26.2767422 44,25.7939786 L44,12.8726881 C44,12.3905647 44.4341416,12 44.9700574,12 L52.3632759,12 C52.8999034,12 53.3333333,12.3905647 53.3333333,12.8726881 L53.3333333,25.7939786 C53.3333333,26.2767422 52.8999034,26.6666667 52.3632759,26.6666667 Z
M45.9408266,24.9212904 L51.391795,24.9212904 L51.391795,13.7466568 L45.9408266,13.7466568 L45.9408266,24.9212904 Z" id="Shape"></path>
            </g>
        </g>
    </g>
</svg>