<svg width="33px" height="33px" viewBox="0 0 33 33" version="1.1" xmlns="http://www.w3.org/2000/svg" xmlns:xlink="http://www.w3.org/1999/xlink">
    <desc>Created with Sketch.</desc>
    <defs></defs>
    <g id="Page-1" stroke="none" stroke-width="1" fill="none" fill-rule="evenodd">
        <g id="шаг-1-" transform="translate(-237.000000, -161.000000)" fill="#337AB7" fill-rule="nonzero">
            <g id="шаги" transform="translate(237.000000, 161.000000)">
                <g id="o">
                    <g id="noun_1073636_cc">
                        <g id="Group">
                            <path d="M16.5,0 C7.38571429,0 0,7.38571429 0,16.5 C0,25.6142857 7.38571429,33 16.5,33 C25.6142857,33 33,25.6142857 33,16.5 C33,7.38571429 25.6142857,0 16.5,0 Z M16.5,31.4285714 C8.25,31.4285714 1.57142857,24.75 1.57142857,16.5 C1.57142857,8.25 8.25,1.57142857 16.5,1.57142857 C24.75,1.57142857 31.4285714,8.25 31.4285714,16.5 C31.4285714,24.75 24.75,31.4285714 16.5,31.4285714 Z" id="Shape"></path>
                            <path d="M24.2785714,10.3714286 L13.7107143,20.9392857 L8.72142857,15.95 C8.40714286,15.6357143 7.93571429,15.6357143 7.62142857,15.95 C7.30714286,16.2642857 7.30714286,16.7357143 7.62142857,17.05 L13.1607143,22.5892857 C13.3178571,22.7464286 13.5142857,22.825 13.7107143,22.825 C13.9071429,22.825 14.1035714,22.7464286 14.2607143,22.5892857 L25.3785714,11.4714286 C25.6928571,11.1571429 25.6928571,10.6857143 25.3785714,10.3714286 C25.0642857,10.0964286 24.5928571,10.0964286 24.2785714,10.3714286 Z" id="Shape"></path>
                        </g>
                    </g>
                </g>
            </g>
        </g>
    </g>
</svg>