<svg width="65px" height="68px" viewBox="0 0 65 68" version="1.1" xmlns="http://www.w3.org/2000/svg" xmlns:xlink="http://www.w3.org/1999/xlink">
    <desc>Created with Sketch.</desc>
    <defs></defs>
    <g id="Page-1" stroke="none" stroke-width="1" fill="none" fill-rule="evenodd" fill-opacity="0.2">
        <g id="шаг-3-ЖЕНСК" transform="translate(-995.000000, -522.000000)" fill="#000000" fill-rule="nonzero">
            <g id="noun_946719_cc" transform="translate(995.000000, 522.000000)">
                <path d="M61.2726562,53.0721271 C56.2297879,49.0228136 50.7396094,45.6464407 44.9850781,42.7078898 C44.058683,42.2347712 41.7485714,40.0115169 41.7714955,39.665178 C43.2537277,39.2906017 44.8096652,38.9830169 46.3133705,38.5051441 C47.8252009,38.024822 49.317154,37.4569068 50.7596317,36.7990932 C52.2115402,36.1369576 52.3247098,35.0900169 51.2614955,33.8905085 C49.1475446,31.5054661 48.1921317,28.5879492 47.7980692,25.5390424 C47.3979129,22.4430254 47.3040402,19.3068136 47.1257254,16.1850085 C46.944654,13.0158051 46.6697098,9.87282203 45.4175893,6.89969492 C44.3281138,4.31281356 42.573404,2.59451695 39.6006696,2.41875424 C39.3216629,2.40218644 38.9590848,2.39844068 38.7851228,2.23247458 C37.2676339,0.782864407 35.3788616,0.288135593 33.372567,0 C32.790904,0 32.2092411,0 31.627433,0 C29.1787612,0.43220339 26.8866406,1.26059322 24.8360938,2.70472881 C20.6145759,5.678 18.3571317,9.81807627 17.6956696,14.817661 C17.3756027,17.2368475 17.4353795,19.7022797 17.2296429,22.1393305 C16.8973884,26.0731017 16.2234487,29.9204322 13.8429688,33.2459492 C13.8219308,33.275339 13.8001674,33.3040085 13.7781138,33.3325339 C11.9993192,35.6423729 12.0959487,36.2310339 14.8982031,37.3026102 C17.1153125,38.1504492 19.4418192,38.7167797 21.7217522,39.401822 C22.0949219,39.5139068 22.4779576,39.576 22.8002009,39.656678 C22.8290737,40.0113729 21.1570647,42.0650593 20.3487723,42.5085 C17.5560938,44.040661 14.6598214,45.4333644 12.0207924,47.1953136 C8.539375,49.5197034 5.25774554,52.1240169 1.92751116,54.6653729 C0.697008929,55.6045508 0.290178571,57.0141102 0,58.5124153 C0,61.6850763 0,64.6864407 0,68 C21.4732143,68 43.5267857,68 65,68 C65,64.6864407 65,61.6850763 65,58.5124153 C64.7098214,55.998 63.0801786,54.5234661 61.2726562,53.0721271 Z" id="Shape"></path>
            </g>
        </g>
    </g>
</svg>