<?xml version="1.0" encoding="UTF-8"?>
<svg width="14px" height="17px" viewBox="0 0 14 17" version="1.1" xmlns="http://www.w3.org/2000/svg" xmlns:xlink="http://www.w3.org/1999/xlink">
    <!-- Generator: Sketch 48.2 (47327) - http://www.bohemiancoding.com/sketch -->
    <title>noun_196563_cc</title>
    <desc>Created with Sketch.</desc>
    <defs></defs>
    <g id="мои-заявки" stroke="none" stroke-width="1" fill="none" fill-rule="evenodd" transform="translate(-1204.000000, -33.000000)" fill-opacity="0.5">
        <g id="noun_196563_cc" transform="translate(1204.000000, 33.000000)" fill="#000000" fill-rule="nonzero">
            <path d="M7.26427872,8.61718936 C8.06985513,8.52768087 8.7411688,8.21440115 9.25584261,7.63259597 C10.5313386,6.17808302 10.3299445,3.69422243 10.3075674,3.47045121 C10.1733046,0.650933788 8.11460937,-0.0427570064 6.88386764,0.00199723834 C5.67550303,-0.0427570064 3.59443065,0.650933788 3.46016791,3.47045121 C3.43779079,3.69422243 3.21401957,6.17808302 4.51189267,7.63259597 C5.02656648,8.21440115 5.67550303,8.52768087 6.50345656,8.61718936 L6.50345656,8.63956648 L6.88386764,8.63956648 L6.90624476,8.63956648 L6.92862188,8.63956648 L7.26427872,8.61718936 Z M6.88386764,7.87874432 L6.83911339,7.87874432 C6.07829123,7.87874432 5.47410893,7.63259597 5.02656648,7.11792216 C3.93008748,5.88718043 4.15385871,3.53758258 4.17623583,3.51520545 L4.17623583,3.49282833 C4.22099007,2.30684084 4.66853252,1.47888732 5.47410893,1.05372199 C6.03353699,0.740442277 6.61534217,0.718065155 6.79435915,0.718065155 C6.81673627,0.718065155 6.83911339,0.718065155 6.86149052,0.718065155 L6.88386764,0.718065155 L6.90624476,0.718065155 C6.97337613,0.718065155 7.6446898,0.695688032 8.27124923,1.05372199 C9.07682563,1.47888732 9.50199096,2.30684084 9.56912233,3.49282833 L9.56912233,3.51520545 C9.56912233,3.53758258 9.81527067,5.88718043 8.71879167,7.11792216 C8.2488721,7.63259597 7.6446898,7.87874432 6.88386764,7.87874432 Z M13.7536442,12.8464655 L13.7536442,12.8912197 C13.7536442,13.0702367 13.7536442,13.9429445 13.5970044,14.3904869 L13.5522501,14.5023725 L13.4627416,14.5695039 C13.350856,14.6366353 10.9565039,16.1806567 6.90624476,16.1806567 L6.90624476,15.4422117 C10.2628131,15.4422117 12.4557711,14.3009784 12.9480678,14.032453 C12.9928221,13.8758131 13.0151992,13.6296648 13.0151992,13.3835164 L12.9928221,13.3835164 L13.0151992,12.8912197 C13.0599534,12.2422832 12.9928221,11.1010499 12.07536,10.8772787 C10.3970759,10.4521134 9.05444851,9.51227425 8.98731714,9.46752001 L9.21108837,9.1542403 L9.43485959,8.84096058 C9.45723671,8.84096058 10.7327327,9.73604548 12.2767541,10.1388337 C13.2837246,10.384982 13.8431527,11.3695754 13.7536442,12.8464655 Z M0.0140910653,12.9135969 C-0.0977945466,11.4143297 0.461633513,10.4073591 1.51335827,10.1388337 C3.05737971,9.73604548 4.33287569,8.8633377 4.35525281,8.84096058 L4.78041813,9.44514289 C4.71328677,9.48989713 3.37065942,10.4297363 1.69237524,10.8549016 C0.752536104,11.1010499 0.707781859,12.2199061 0.752536104,12.8688426 L0.752536104,12.8912197 L0.752536104,12.9135969 C0.752536104,13.2268766 0.774913227,13.7415504 0.842044594,14.0100759 C1.35671841,14.3009784 3.5496764,15.4198346 6.88386764,15.4198346 L6.88386764,16.1582796 C2.83360849,16.1582796 0.416879268,14.6142582 0.327370779,14.5471268 L0.237862289,14.4799954 L0.193108044,14.3681098 C0.0140910653,13.9653216 0.0140910653,13.114991 0.0140910653,12.9135969 Z" id="Shape"></path>
        </g>
    </g>
</svg>