<?xml version="1.0" encoding="UTF-8"?>
<svg width="16px" height="18px" viewBox="0 0 16 18" version="1.1" xmlns="http://www.w3.org/2000/svg" xmlns:xlink="http://www.w3.org/1999/xlink">
    <!-- Generator: Sketch 48.2 (47327) - http://www.bohemiancoding.com/sketch -->
    <title>noun_228542_cc</title>
    <desc>Created with Sketch.</desc>
    <defs></defs>
    <g id="мои-заявки" stroke="none" stroke-width="1" fill="none" fill-rule="evenodd" transform="translate(-1238.000000, -33.000000)" fill-opacity="0.5">
        <g id="noun_228542_cc" transform="translate(1238.000000, 33.000000)" fill="#000000" fill-rule="nonzero">
            <g id="Group">
                <path d="M4.65818182,5.922 C6.27684848,5.922 7.59369697,4.635 7.59369697,3.05360526 C7.59369697,1.47221053 6.27660606,0.185684211 4.65818182,0.185684211 C3.03927273,0.185684211 1.72218182,1.47244737 1.72218182,3.05360526 C1.72218182,4.63523684 3.03927273,5.922 4.65818182,5.922 Z M4.65818182,0.896210526 C5.87563636,0.896210526 6.86642424,1.86418421 6.86642424,3.05360526 C6.86642424,4.2435 5.87563636,5.21147368 4.65818182,5.21147368 C3.44024242,5.21147368 2.44945455,4.2435 2.44945455,3.05360526 C2.44945455,1.86418421 3.44,0.896210526 4.65818182,0.896210526 Z" id="Shape"></path>
                <path d="M15.9653333,7.72152632 C15.5323636,6.30402632 14.1949091,6.34571053 14.1313939,6.34878947 L10.5738182,6.34878947 C9.64678788,6.34878947 9.11660606,7.01526316 8.92193939,7.32126316 C8.21624242,6.30639474 7.0409697,6.34310526 6.98836364,6.34547368 L2.32945455,6.34547368 C0.867636364,6.34547368 0.190787879,7.67889474 0.157090909,7.74734211 C-0.207030303,8.55710526 0.202666667,9.88010526 0.268606061,10.0809474 L1.83345455,16.1227895 C2.25406061,17.7671842 4.35466667,17.8145526 4.5929697,17.8145526 L4.60654545,17.8145526 C6.576,17.8145526 7.32387879,16.4773421 7.35466667,16.4202632 L7.37527273,16.3823684 L8.9670303,10.2093158 C9.0009697,10.0840263 9.03078788,9.96821053 9.05842424,9.85665789 L10.1117576,13.9234737 C10.4489697,15.2417368 12.1146667,15.2798684 12.3032727,15.2798684 L12.3134545,15.2798684 C13.8690909,15.2798684 14.4642424,14.2150263 14.4889697,14.1695526 L15.728,9.40642105 C16.0378182,8.26152632 16.0087273,7.85628947 15.9653333,7.72152632 Z M8.2630303,10.0314474 L6.69333333,16.1182895 C6.58448485,16.2885789 5.98933333,17.1040263 4.60048485,17.1040263 L4.5929697,17.4592895 L4.5929697,17.1040263 C4.41309091,17.1040263 2.82593939,17.0715789 2.53866667,15.9494211 L0.970666667,9.8955 L0.963878788,9.87276316 C0.856969697,9.55207895 0.601454545,8.52584211 0.817454545,8.04505263 C0.82230303,8.03510526 1.31854545,7.056 2.32945455,7.056 L6.99539394,7.056 L7.03660606,7.05505263 C7.31078788,7.05505263 8.22739394,7.1415 8.5769697,8.25205263 C8.58424242,8.30913158 8.61672727,8.72431579 8.2630303,10.0314474 Z M15.024,9.22831579 L13.8278788,13.8668684 C13.7372121,14.0042368 13.304,14.5691053 12.3076364,14.5691053 L12.3030303,14.9243684 L12.3030303,14.5691053 C12.2509091,14.5691053 11.024,14.5598684 10.8167273,13.7498684 L9.61890909,9.12457895 L9.61212121,9.10160526 C9.51272727,8.80342105 9.35466667,8.08223684 9.496,7.76771053 C9.49963636,7.76060526 9.85478788,7.05931579 10.5738182,7.05931579 L14.1386667,7.05931579 L14.1701818,7.05860526 C14.3638788,7.05860526 15.0104242,7.11994737 15.2627879,7.90602632 C15.2676364,7.96215789 15.2790303,8.28544737 15.024,9.22831579 Z" id="Shape"></path>
                <path d="M12.3527273,6.19294737 C13.6370909,6.19294737 14.681697,5.17215789 14.681697,3.91784211 C14.681697,2.66305263 13.6368485,1.6425 12.3527273,1.6425 C11.0686061,1.6425 10.024,2.66328947 10.024,3.91784211 C10.024,5.17215789 11.0686061,6.19294737 12.3527273,6.19294737 Z M12.3527273,2.35278947 C13.2361212,2.35278947 13.9544242,3.05478947 13.9544242,3.91760526 C13.9544242,4.78042105 13.2358788,5.48218421 12.3527273,5.48218421 C11.4695758,5.48218421 10.7512727,4.78018421 10.7512727,3.91760526 C10.7512727,3.05478947 11.4698182,2.35278947 12.3527273,2.35278947 Z" id="Shape"></path>
            </g>
        </g>
    </g>
</svg>