<?xml version="1.0" encoding="UTF-8"?>
<svg width="18px" height="18px" viewBox="0 0 18 18" version="1.1" xmlns="http://www.w3.org/2000/svg" xmlns:xlink="http://www.w3.org/1999/xlink">
    <!-- Generator: Sketch 48.2 (47327) - http://www.bohemiancoding.com/sketch -->
    <title>noun_373714_cc</title>
    <desc>Created with Sketch.</desc>
    <defs></defs>
    <g id="мои-заявки" stroke="none" stroke-width="1" fill="none" fill-rule="evenodd" transform="translate(-1280.000000, -534.000000)" fill-opacity="0.5">
        <g id="noun_373714_cc" transform="translate(1280.000000, 534.000000)" fill="#000000" fill-rule="nonzero">
            <path d="M15.9501085,0 L2.04989154,0 C0.917570499,0 0,0.917570499 0,2.04989154 L0,15.9501085 C0,17.0824295 0.917570499,18 2.04989154,18 L15.9501085,18 C17.0824295,18 18,17.0824295 18,15.9501085 L18,2.04989154 C18,0.917570499 17.0824295,0 15.9501085,0 Z M17.0238612,15.9501085 C17.0238612,16.5553145 16.5357918,17.0238612 15.9501085,17.0238612 L2.04989154,17.0238612 C1.44468547,17.0238612 0.976138829,16.5357918 0.976138829,15.9501085 L0.976138829,2.04989154 C0.976138829,1.44468547 1.46420824,0.976138829 2.04989154,0.976138829 L15.9501085,0.976138829 C16.5553145,0.976138829 17.0238612,1.46420824 17.0238612,2.04989154 L17.0238612,15.9501085 Z M11.7331887,6.95010846 L9.68329718,9 L11.7331887,11.0498915 C11.9284165,11.2451193 11.9284165,11.5574837 11.7331887,11.7331887 C11.6355748,11.8308026 11.5184382,11.8698482 11.3817787,11.8698482 C11.2451193,11.8698482 11.1475054,11.8308026 11.0498915,11.7331887 L9,9.68329718 L6.95010846,11.7331887 C6.85249458,11.8308026 6.73535792,11.8698482 6.59869848,11.8698482 C6.46203905,11.8698482 6.34490239,11.8308026 6.26681128,11.7331887 C6.07158351,11.537961 6.07158351,11.2255965 6.26681128,11.0498915 L8.31670282,9 L6.26681128,6.95010846 C6.07158351,6.75488069 6.07158351,6.44251627 6.26681128,6.26681128 C6.46203905,6.07158351 6.77440347,6.07158351 6.95010846,6.26681128 L9,8.31670282 L11.0498915,6.26681128 C11.2451193,6.07158351 11.5574837,6.07158351 11.7331887,6.26681128 C11.9284165,6.44251627 11.9284165,6.75488069 11.7331887,6.95010846 Z" id="Shape"></path>
        </g>
    </g>
</svg>