<?xml version="1.0" encoding="UTF-8"?>
<svg width="18px" height="20px" viewBox="0 0 18 20" version="1.1" xmlns="http://www.w3.org/2000/svg" xmlns:xlink="http://www.w3.org/1999/xlink">
    <!-- Generator: Sketch 48.2 (47327) - http://www.bohemiancoding.com/sketch -->
    <title>Shape</title>
    <desc>Created with Sketch.</desc>
    <defs></defs>
    <g id="мои-заявки" stroke="none" stroke-width="1" fill="none" fill-rule="evenodd" transform="translate(-1277.000000, -225.000000)" fill-opacity="0.5">
        <g id="spreadsheet" transform="translate(127.000000, 159.000000)" fill="#000000" fill-rule="nonzero">
            <g id="1-str" transform="translate(26.000000, 66.000000)">
                <g id="ico" transform="translate(1070.000000, 0.000000)">
                    <path d="M71.992,4.44164384 C71.992,4.44109589 71.992,4.44082192 71.9917143,4.44027397 C71.9845714,4.40547945 71.9711429,4.37260274 71.9548571,4.34082192 C71.9505714,4.33260274 71.9462857,4.32493151 71.9417143,4.3169863 C71.9231429,4.28575342 71.9017143,4.25589041 71.8745714,4.23013699 L67.5888571,0.120547945 C67.562,0.0947945205 67.5311429,0.0742465753 67.4988571,0.0564383562 C67.4902857,0.0517808219 67.4817143,0.0473972603 67.4731429,0.0432876712 C67.4411429,0.0282191781 67.4077143,0.015890411 67.3725714,0.00904109589 C67.37,0.00849315068 67.3674286,0.00821917808 67.3651429,0.00794520548 C67.3388571,0.00273972603 67.3125714,0 67.2857143,0 L58.7142857,0 C58.4774286,0 58.2857143,0.183835616 58.2857143,0.410958904 L58.2857143,2.05479452 L54.4285714,2.05479452 C54.1917143,2.05479452 54,2.23863014 54,2.46575342 L54,19.5890411 C54,19.8161644 54.1917143,20 54.4285714,20 L67.2857143,20 C67.5225714,20 67.7142857,19.8161644 67.7142857,19.5890411 L67.7142857,17.9452055 L71.5714286,17.9452055 C71.8082857,17.9452055 72,17.7613699 72,17.5342466 L72,4.52054795 C72,4.49369863 71.9971429,4.46739726 71.992,4.44164384 Z M70.5368571,4.10958904 L67.7142857,4.10958904 L67.7142857,1.4030137 L70.5368571,4.10958904 Z M54.8571429,19.1780822 L54.8571429,2.87671233 L62.5714286,2.87671233 L62.5714286,6.57534247 C62.5714286,6.80246575 62.7631429,6.98630137 63,6.98630137 L66.8571429,6.98630137 L66.8571429,19.1780822 L54.8571429,19.1780822 Z M63.4285714,3.45780822 L66.2511429,6.16438356 L63.4285714,6.16438356 L63.4285714,3.45780822 Z M67.7142857,17.1232877 L67.7142857,6.57534247 C67.7142857,6.54849315 67.7114286,6.52219178 67.7062857,6.49643836 C67.7062857,6.49589041 67.7062857,6.49561644 67.706,6.49506849 C67.6988571,6.46027397 67.6854286,6.42739726 67.6691429,6.39561644 C67.6648571,6.38739726 67.6605714,6.37972603 67.656,6.37178082 C67.6374286,6.34054795 67.616,6.31068493 67.5888571,6.28493151 L63.3031429,2.17534247 C63.276,2.14931507 63.2451429,2.1290411 63.2125714,2.1109589 C63.2045714,2.10657534 63.1962857,2.10219178 63.188,2.09835616 C63.1551429,2.08273973 63.1211429,2.07013699 63.0851429,2.06328767 C63.084,2.0630137 63.0825714,2.0630137 63.0814286,2.06273973 C63.0545714,2.05753425 63.0274286,2.05479452 63,2.05479452 L59.1428571,2.05479452 L59.1428571,0.821917808 L66.8571429,0.821917808 L66.8571429,4.52054795 C66.8571429,4.74767123 67.0488571,4.93150685 67.2857143,4.93150685 L71.1428571,4.93150685 L71.1428571,17.1232877 L67.7142857,17.1232877 Z" id="Shape"></path>
                </g>
            </g>
        </g>
    </g>
</svg>