<?xml version="1.0" encoding="UTF-8"?>
<svg width="20px" height="20px" viewBox="0 0 20 20" version="1.1" xmlns="http://www.w3.org/2000/svg" xmlns:xlink="http://www.w3.org/1999/xlink">
    <!-- Generator: Sketch 48.2 (47327) - http://www.bohemiancoding.com/sketch -->
    <title>Shape</title>
    <desc>Created with Sketch.</desc>
    <defs></defs>
    <g id="мои-заявки" stroke="none" stroke-width="1" fill="none" fill-rule="evenodd" transform="translate(-1223.000000, -225.000000)" fill-opacity="0.5">
        <g id="spreadsheet" transform="translate(127.000000, 159.000000)" fill="#000000" fill-rule="nonzero">
            <g id="1-str" transform="translate(26.000000, 66.000000)">
                <g id="ico" transform="translate(1070.000000, 0.000000)">
                    <path d="M16.9958059,0.0028047172 C16.8940139,0.0138084504 16.7989176,0.0588475857 16.7259185,0.130627698 L6.49860791,10.3564662 C6.42960875,10.4257194 6.38477759,10.5153688 6.37076653,10.6121122 L5.91621939,13.5662433 C5.89418395,13.7093597 5.94166808,13.8544099 6.04407358,13.9568007 C6.14647908,14.0591915 6.29155018,14.1066688 6.43468722,14.0846365 L9.38924362,13.6301548 C9.483474,13.6147083 9.57044712,13.5699857 9.63782409,13.5023318 L19.8651347,3.27649329 C19.9514378,3.19111782 20,3.07477319 20,2.9533852 C20,2.83199721 19.9514378,2.71565258 19.8651347,2.63027711 L17.3651254,0.130627698 C17.2675535,0.0345836446 17.131883,-0.0123724832 16.9958059,0.0028047172 Z M17.045522,1.09640133 L18.9063243,2.95693584 L9.10515166,12.7495965 L6.90343896,13.0904577 L7.24434931,10.8961632 L17.045522,1.09640133 Z M0.411937643,1.82073156 C0.177684227,1.84280607 -0.00101027631,2.03995783 4.2987505e-06,2.27521327 L4.2987505e-06,19.5455183 C2.9372797e-05,19.7965112 0.203522371,19.9999749 0.454551437,20 L17.7273427,20 C17.9783718,19.9999749 18.1818647,19.7965112 18.1818898,19.5455183 L18.1818898,7.27451209 C18.184207,7.11061043 18.0980811,6.95815783 17.9564913,6.87553089 C17.8149015,6.79290396 17.6397839,6.79290396 17.4981941,6.87553089 C17.3566042,6.95815783 17.2704784,7.11061043 17.2727955,7.27451209 L17.2727955,19.0910366 L0.909098575,19.0910366 L0.909098575,2.72969498 L12.7273242,2.72969498 C12.8912494,2.7320118 13.043724,2.64589835 13.1263628,2.50432889 C13.2090016,2.36275943 13.2090016,2.18766711 13.1263628,2.04609765 C13.043724,1.90452819 12.8912494,1.81841474 12.7273242,1.82073156 L0.454551437,1.82073156 C0.440354649,1.82006552 0.426134431,1.82006552 0.411937643,1.82073156 Z" id="Shape"></path>
                </g>
            </g>
        </g>
    </g>
</svg>