<?xml version="1.0" encoding="UTF-8"?>
<svg width="39px" height="18px" viewBox="0 0 39 18" version="1.1" xmlns="http://www.w3.org/2000/svg" xmlns:xlink="http://www.w3.org/1999/xlink">
    <!-- Generator: Sketch 48.2 (47327) - http://www.bohemiancoding.com/sketch -->
    <title>noun_727631_cc</title>
    <desc>Created with Sketch.</desc>
    <defs></defs>
    <g id="мои-заявки" stroke="none" stroke-width="1" fill="none" fill-rule="evenodd" transform="translate(-1212.000000, -533.000000)" fill-opacity="0.5">
        <g id="noun_727631_cc" transform="translate(1212.000000, 533.000000)" fill="#000000" fill-rule="nonzero">
            <g id="Group">
                <path d="M14.3,0.159001463 C13.1071633,0.159001463 12.1333333,1.14561659 12.1333333,2.35412341 L12.1333333,15.5248683 C12.1333333,16.7333707 13.1071633,17.7199902 14.3,17.7199902 L36.8333333,17.7199902 C38.02617,17.7199902 39,16.7333707 39,15.5248683 L39,2.35412341 C39,1.14561659 38.02617,0.159001463 36.8333333,0.159001463 L14.3,0.159001463 Z M14.3,1.03705024 L36.8333333,1.03705024 C37.56103,1.03705024 38.1333333,1.61686537 38.1333333,2.35412341 L38.1333333,15.5248683 C38.1333333,16.262122 37.56103,16.8419415 36.8333333,16.8419415 L14.3,16.8419415 C13.5723033,16.8419415 13,16.262122 13,15.5248683 L13,2.35412341 C13,1.61686537 13.5723033,1.03705024 14.3,1.03705024 Z M0.433333333,3.2321722 C0.194003333,3.2321722 0,3.42872341 0,3.67119659 C0,3.91366976 0.194003333,4.11022098 0.433333333,4.11022098 L9.1,4.11022098 C9.33933,4.11022098 9.53333333,3.91366976 9.53333333,3.67119659 C9.53333333,3.42872341 9.33933,3.2321722 9.1,3.2321722 L0.433333333,3.2321722 Z M16.8458333,4.08278195 C16.4957433,4.13949951 16.3666533,4.56086634 16.6020833,4.85107463 L20.7458333,8.80230732 L16.58852,13.0141756 C16.42901,13.1794244 16.4388467,13.4699268 16.6019533,13.6315756 C16.7650167,13.7931805 17.0517967,13.7968244 17.21135,13.6315756 L21.3821833,9.40596585 L23.87385,11.793161 C24.79061,12.6687512 26.31447,12.667039 27.2321833,11.793161 L29.75089,9.40596585 L33.9217233,13.6315756 C34.0812767,13.7967805 34.38162,13.7931805 34.5446833,13.6315756 C34.70779,13.4699268 34.7040633,13.1794244 34.5446833,13.0141756 L30.38737,8.80230732 L34.53112,4.85107463 C34.6978233,4.69305659 34.7142467,4.38881707 34.5579867,4.21997707 C34.4019433,4.05113268 34.1016867,4.04815171 33.93507,4.20627951 L26.6496533,11.1483659 C26.11219,11.6602244 25.0053267,11.6602683 24.4694667,11.1483659 L17.19757,4.20627951 C17.09292,4.08670244 16.9320233,4.0734439 16.8454867,4.0828039 L16.8458333,4.08278195 Z M2.16666667,8.50047805 C1.92733667,8.50047805 1.73333333,8.69702927 1.73333333,8.93950244 C1.73333333,9.18197561 1.92733667,9.37852683 2.16666667,9.37852683 L9.1,9.37852683 C9.33933,9.37852683 9.53333333,9.18197561 9.53333333,8.93950244 C9.53333333,8.69702927 9.33933,8.50047805 9.1,8.50047805 L2.16666667,8.50047805 Z M3.9,13.7687707 C3.66067,13.7687707 3.46666667,13.965322 3.46666667,14.2077951 C3.46666667,14.4502683 3.66067,14.6468195 3.9,14.6468195 L9.1,14.6468195 C9.33933,14.6468195 9.53333333,14.4502683 9.53333333,14.2077951 C9.53333333,13.965322 9.33933,13.7687707 9.1,13.7687707 L3.9,13.7687707 Z" id="Shape"></path>
            </g>
        </g>
    </g>
</svg>