<?xml version="1.0" encoding="UTF-8"?>
<svg width="18px" height="20px" viewBox="0 0 18 20" version="1.1" xmlns="http://www.w3.org/2000/svg" xmlns:xlink="http://www.w3.org/1999/xlink">
    <!-- Generator: Sketch 48.2 (47327) - http://www.bohemiancoding.com/sketch -->
    <title>trash</title>
    <desc>Created with Sketch.</desc>
    <defs></defs>
    <g id="мои-заявки" stroke="none" stroke-width="1" fill="none" fill-rule="evenodd" transform="translate(-1327.000000, -284.000000)">
        <g id="ico" transform="translate(1223.000000, 284.000000)" fill="#7F7F7F" fill-rule="nonzero">
            <g id="trash" transform="translate(104.000000, 0.000000)">
                <path d="M6.130905,2.39907492 L6.48765867,1.54966143 C6.58263323,1.32353156 6.9121312,1.11111111 7.16666667,1.11111111 L10.8333333,1.11111111 C11.0896955,1.11111111 11.4167081,1.32196327 11.5123413,1.54966143 L11.869095,2.39907492 L12.7975717,2.04536952 L12.440818,1.19595603 C12.1933203,0.606675873 11.4985971,0.158730159 10.8333333,0.158730159 L7.16666667,0.158730159 C6.50325913,0.158730159 5.80603197,0.608217968 5.559182,1.19595603 L5.20242833,2.04536952 L6.130905,2.39907492 Z" id="Shape"></path>
                <path d="M0.666666667,2.85714286 L17.3333333,2.85714286 C17.6094757,2.85714286 17.8333333,2.64394511 17.8333333,2.38095238 C17.8333333,2.11795965 17.6094757,1.9047619 17.3333333,1.9047619 L0.666666667,1.9047619 C0.3905243,1.9047619 0.166666667,2.11795965 0.166666667,2.38095238 C0.166666667,2.64394511 0.3905243,2.85714286 0.666666667,2.85714286 Z" id="Shape"></path>
                <path d="M12.1668828,6.01774648 L11.8335495,16.8113973 C11.8254311,17.0742763 12.0426108,17.2936497 12.3186338,17.3013815 C12.5946568,17.3091132 12.8249989,17.1022754 12.8331172,16.8393964 L13.1664505,6.04574559 C13.1745689,5.78286651 12.9573892,5.56349311 12.6813662,5.5557614 C12.4053432,5.54802965 12.1750011,5.75486743 12.1668828,6.01774648 Z" id="Shape"></path>
                <path d="M4.83354947,6.04574559 L5.1668828,16.8393964 C5.1750011,17.1022754 5.40534317,17.3091132 5.6813662,17.3013815 C5.9573892,17.2936497 6.17456887,17.0742763 6.16645053,16.8113973 L5.8331172,6.01774648 C5.8249989,5.75486743 5.59465683,5.54802965 5.3186338,5.5557614 C5.0426108,5.56349311 4.82543113,5.78286651 4.83354947,6.04574559 Z" id="Shape"></path>
                <path d="M8.66666667,6.03174603 L8.66666667,16.8253968 C8.66666667,17.0883896 8.8905243,17.3015873 9.16666667,17.3015873 C9.44280903,17.3015873 9.66666667,17.0883896 9.66666667,16.8253968 L9.66666667,6.03174603 C9.66666667,5.7687533 9.44280903,5.55555556 9.16666667,5.55555556 C8.8905243,5.55555556 8.66666667,5.7687533 8.66666667,6.03174603 Z" id="Shape"></path>
                <path d="M15.833689,2.52172587 L15.2174039,18.0755863 C15.1997351,18.5215132 14.7995767,18.8888889 14.3333248,18.8888889 L3.66667517,18.8888889 C3.1993835,18.8888889 2.8002889,18.5221195 2.7825961,18.0755863 L2.16631103,2.52172587 C2.155898,2.25892019 1.92375813,2.05391356 1.64781217,2.06383076 C1.3718662,2.07374794 1.15660923,2.29483352 1.1670223,2.55763921 L1.78330733,18.1114997 C1.8212559,19.0692495 2.66131827,19.8412698 3.66667517,19.8412698 L14.3333248,19.8412698 C15.3374185,19.8412698 16.1787597,19.0688551 16.2166927,18.1114997 L16.8329777,2.55763921 C16.8433908,2.29483352 16.6281338,2.07374794 16.3521878,2.06383076 C16.0762419,2.05391356 15.844102,2.25892019 15.833689,2.52172587 Z" id="Shape"></path>
            </g>
        </g>
    </g>
</svg>