<?xml version="1.0" encoding="UTF-8"?>
<svg width="23px" height="26px" viewBox="0 0 23 26" version="1.1" xmlns="http://www.w3.org/2000/svg" xmlns:xlink="http://www.w3.org/1999/xlink">
    <!-- Generator: Sketch 48.2 (47327) - http://www.bohemiancoding.com/sketch -->
    <title>noun_118324_cc</title>
    <desc>Created with Sketch.</desc>
    <defs></defs>
    <g id="мои-заявки" stroke="none" stroke-width="1" fill="none" fill-rule="evenodd" transform="translate(-39.000000, -394.000000)" fill-opacity="0.5">
        <g id="Group-3" transform="translate(11.000000, 105.000000)" fill="#000000" fill-rule="nonzero">
            <g id="noun_118324_cc" transform="translate(28.000000, 289.000000)">
                <g id="Group">
                    <path d="M23,26 L0,26 L0,0 L23,0 L23,26 Z M0.807017544,25.3580247 L22.1929825,25.3580247 L22.1929825,0.641975309 L0.807017544,0.641975309 L0.807017544,25.3580247 Z" id="Shape"></path>
                    <path d="M19.6133912,2.21234321 L19.6133912,5.62431358 L2.87677544,5.62431358 L2.87677544,2.21234321 L19.6133912,2.21234321 Z M20.4204088,1.5703679 L2.06975789,1.5703679 L2.06975789,6.26628889 L20.4204088,6.26628889 L20.4204088,1.5703679 Z" id="Shape"></path>
                    <path d="M4.97288246,8.16846173 L4.97288246,9.71443457 L2.87677544,9.71443457 L2.87677544,8.16846173 L4.97288246,8.16846173 Z M5.7799,7.52648642 L2.06975789,7.52648642 L2.06975789,10.3564099 L5.7799,10.3564099 L5.7799,7.52648642 Z" id="Shape"></path>
                    <path d="M9.86639474,8.16846173 L9.86639474,9.71443457 L7.77028772,9.71443457 L7.77028772,8.16846173 L9.86639474,8.16846173 Z M10.6734123,7.52648642 L6.96327018,7.52648642 L6.96327018,10.3564099 L10.6734123,10.3564099 L10.6734123,7.52648642 Z" id="Shape"></path>
                    <path d="M14.759907,8.16846173 L14.759907,9.71443457 L12.6638,9.71443457 L12.6638,8.16846173 L14.759907,8.16846173 Z M15.5669246,7.52648642 L11.8567825,7.52648642 L11.8567825,10.3564099 L15.5669246,10.3564099 L15.5669246,7.52648642 Z" id="Shape"></path>
                    <path d="M19.6534193,8.16846173 L19.6534193,9.71443457 L17.5573123,9.71443457 L17.5573123,8.16846173 L19.6534193,8.16846173 Z M20.4604368,7.52648642 L16.7502947,7.52648642 L16.7502947,10.3564099 L20.4604368,10.3564099 L20.4604368,7.52648642 Z" id="Shape"></path>
                    <path d="M4.97288246,11.9252049 L4.97288246,13.4711778 L2.87677544,13.4711778 L2.87677544,11.9252049 L4.97288246,11.9252049 Z M5.7799,11.2832296 L2.06975789,11.2832296 L2.06975789,14.1131531 L5.7799,14.1131531 L5.7799,11.2832296 Z" id="Shape"></path>
                    <path d="M9.86639474,11.9252049 L9.86639474,13.4711778 L7.77028772,13.4711778 L7.77028772,11.9252049 L9.86639474,11.9252049 Z M10.6734123,11.2832296 L6.96327018,11.2832296 L6.96327018,14.1131531 L10.6734123,14.1131531 L10.6734123,11.2832296 Z" id="Shape"></path>
                    <path d="M14.759907,11.9252049 L14.759907,13.4711778 L12.6638,13.4711778 L12.6638,11.9252049 L14.759907,11.9252049 Z M15.5669246,11.2832296 L11.8567825,11.2832296 L11.8567825,14.1131531 L15.5669246,14.1131531 L15.5669246,11.2832296 Z" id="Shape"></path>
                    <path d="M19.6534193,11.9252049 L19.6534193,13.4711778 L17.5573123,13.4711778 L17.5573123,11.9252049 L19.6534193,11.9252049 Z M20.4604368,11.2832296 L16.7502947,11.2832296 L16.7502947,14.1131531 L20.4604368,14.1131531 L20.4604368,11.2832296 Z" id="Shape"></path>
                    <path d="M4.97288246,15.6819481 L4.97288246,17.227921 L2.87677544,17.227921 L2.87677544,15.6819481 L4.97288246,15.6819481 Z M5.7799,15.0399728 L2.06975789,15.0399728 L2.06975789,17.8698963 L5.7799,17.8698963 L5.7799,15.0399728 Z" id="Shape"></path>
                    <path d="M9.86639474,15.6819481 L9.86639474,17.227921 L7.77028772,17.227921 L7.77028772,15.6819481 L9.86639474,15.6819481 Z M10.6734123,15.0399728 L6.96327018,15.0399728 L6.96327018,17.8698963 L10.6734123,17.8698963 L10.6734123,15.0399728 Z" id="Shape"></path>
                    <path d="M14.759907,15.6819481 L14.759907,17.227921 L12.6638,17.227921 L12.6638,15.6819481 L14.759907,15.6819481 Z M15.5669246,15.0399728 L11.8567825,15.0399728 L11.8567825,17.8698963 L15.5669246,17.8698963 L15.5669246,15.0399728 Z" id="Shape"></path>
                    <path d="M4.97288246,19.4386914 L4.97288246,20.9846642 L2.87677544,20.9846642 L2.87677544,19.4386914 L4.97288246,19.4386914 Z M5.7799,18.796716 L2.06975789,18.796716 L2.06975789,21.6266395 L5.7799,21.6266395 L5.7799,18.796716 Z" id="Shape"></path>
                    <path d="M9.86639474,19.4386914 L9.86639474,20.9846642 L7.77028772,20.9846642 L7.77028772,19.4386914 L9.86639474,19.4386914 Z M10.6734123,18.796716 L6.96327018,18.796716 L6.96327018,21.6266395 L10.6734123,21.6266395 L10.6734123,18.796716 Z" id="Shape"></path>
                    <path d="M14.759907,19.4386914 L14.759907,20.9846642 L12.6638,20.9846642 L12.6638,19.4386914 L14.759907,19.4386914 Z M15.5669246,18.796716 L11.8567825,18.796716 L11.8567825,21.6266395 L15.5669246,21.6266395 L15.5669246,18.796716 Z" id="Shape"></path>
                    <path d="M19.6534193,15.6819481 L19.6534193,20.9846963 L17.5573123,20.9846963 L17.5573123,15.6819481 L19.6534193,15.6819481 Z M20.4604368,15.0399728 L16.7502947,15.0399728 L16.7502947,21.6266716 L20.4604368,21.6266716 L20.4604368,15.0399728 Z" id="Shape"></path>
                </g>
            </g>
        </g>
    </g>
</svg>