<?xml version="1.0" encoding="UTF-8"?>
<svg width="27px" height="29px" viewBox="0 0 27 29" version="1.1" xmlns="http://www.w3.org/2000/svg" xmlns:xlink="http://www.w3.org/1999/xlink">
    <!-- Generator: Sketch 48.2 (47327) - http://www.bohemiancoding.com/sketch -->
    <title>noun_1238410_cc</title>
    <desc>Created with Sketch.</desc>
    <defs></defs>
    <g id="мои-заявки" stroke="none" stroke-width="1" fill="none" fill-rule="evenodd" transform="translate(-36.000000, -542.000000)" fill-opacity="0.5">
        <g id="Group-3" transform="translate(11.000000, 105.000000)" fill="#000000" fill-rule="nonzero">
            <g id="noun_1238410_cc" transform="translate(25.000000, 437.000000)">
                <g id="Group">
                    <path d="M17.3224719,1.421 L17.3224719,3.596 L19.9011236,5.452 L19.9011236,1.392 C19.9011236,0.696 19.3247191,0.145 18.6269663,0.145 C17.9292135,0.145 17.3224719,0.725 17.3224719,1.421 Z M18.9910112,1.421 L18.9910112,3.712 L18.2325843,3.161 L18.2325843,1.392 C18.2325843,1.189 18.3842697,1.015 18.5966292,1.015 C18.8089888,1.015 18.9910112,1.189 18.9910112,1.421 Z" id="Shape"></path>
                    <path d="M24.3,20.3 C24.3,17.052 21.5696629,14.413 18.2629213,14.384 C18.2629213,14.384 18.2629213,14.384 18.2325843,14.384 C16.6247191,14.384 15.1078652,14.993 13.9550562,16.124 C12.8022472,17.255 12.1651685,18.734 12.1651685,20.3 C12.1651685,23.432 14.8651685,26.158 18.0808989,26.245 C19.2033708,26.274 20.2955056,25.984 21.2662921,25.433 L24.3,28.391 C24.5730337,28.652 24.9370787,28.826 25.3314607,28.826 C25.3314607,28.826 25.3314607,28.826 25.3617978,28.826 C25.7561798,28.826 26.1505618,28.652 26.4235955,28.362 C26.9696629,27.782 26.9393258,26.912 26.3629213,26.361 L23.3595506,23.432 C23.9966292,22.504 24.3,21.431 24.3,20.3 Z M25.7258427,26.999 C25.9382022,27.231 25.9685393,27.579 25.7561798,27.811 C25.6651685,27.927 25.5134831,27.985 25.3617978,27.985 C25.2101124,27.985 25.058427,27.927 24.9674157,27.811 L21.4179775,24.331 L21.1146067,24.534 C20.2348315,25.114 19.2033708,25.404 18.141573,25.375 C15.411236,25.317 13.105618,22.997 13.105618,20.3 C13.105618,18.937 13.6516854,17.69 14.6224719,16.733 C15.5932584,15.776 16.8977528,15.254 18.2629213,15.254 C18.2629213,15.254 18.2629213,15.254 18.2932584,15.254 C21.1146067,15.254 23.4202247,17.516 23.4202247,20.3 C23.4202247,21.373 23.0865169,22.388 22.4797753,23.258 L22.2674157,23.548 L25.7258427,26.999 Z" id="Shape"></path>
                    <path d="M0.515730337,10.237 C0.606741573,10.237 0.697752809,10.208 0.788764045,10.15 L1.97191011,9.367 L1.97191011,14.529 L1.94157303,21.605 C1.94157303,22.446 2.63932584,23.113 3.48876404,23.113 L11.1640449,23.113 C11.1640449,23.113 11.1640449,23.113 11.1640449,23.113 C11.4067416,23.113 11.6191011,22.91 11.6191011,22.678 C11.6191011,22.446 11.4067416,22.243 11.1640449,22.243 L3.48876404,22.243 C3.1247191,22.243 2.82134831,21.953 2.82134831,21.605 L2.85168539,14.529 L2.85168539,8.758 C2.85168539,8.758 2.85168539,8.758 2.85168539,8.758 L12.4988764,2.32 L22.1460674,8.729 L22.1764045,14.413 C22.1764045,14.645 22.388764,14.848 22.6314607,14.848 C22.6314607,14.848 22.6314607,14.848 22.6314607,14.848 C22.8741573,14.848 23.0865169,14.645 23.0865169,14.413 L23.0865169,9.338 L24.2696629,10.15 C24.4820225,10.295 24.7550562,10.237 24.9067416,10.034 C25.058427,9.831 24.9977528,9.57 24.7853933,9.425 L12.5292135,1.247 L0.242696629,9.425 C0.0303370787,9.57 -1.84637028e-13,9.831 0.121348315,10.034 C0.242696629,10.15 0.364044944,10.237 0.515730337,10.237 Z" id="Shape"></path>
                    <path d="M18.2022472,17.632 C17.4438202,17.632 16.8370787,18.212 16.8370787,18.966 C16.8370787,19.691 17.4438202,20.3 18.2022472,20.3 C18.9606742,20.3 19.5674157,19.72 19.5674157,18.966 C19.5674157,18.212 18.9606742,17.632 18.2022472,17.632 Z M18.2022472,19.401 C17.9595506,19.401 17.747191,19.198 17.747191,18.937 C17.747191,18.676 17.9595506,18.473 18.2022472,18.473 C18.4449438,18.473 18.6573034,18.676 18.6573034,18.937 C18.6573034,19.198 18.4752809,19.401 18.2022472,19.401 Z" id="Shape"></path>
                    <path d="M18.2022472,16.356 C17.2314607,16.356 16.3820225,16.849 15.8662921,17.632 C15.3505618,18.473 15.3505618,19.459 15.8359551,20.3 L18.2022472,24.273 L20.5685393,20.3 C21.0539326,19.459 21.0539326,18.473 20.5382022,17.632 C20.052809,16.82 19.1730337,16.356 18.2022472,16.356 Z M19.7797753,19.865 L18.2022472,22.504 L16.6550562,19.865 C16.3213483,19.285 16.3213483,18.618 16.6550562,18.067 C16.988764,17.545 17.5651685,17.226 18.2022472,17.226 C18.8393258,17.226 19.4157303,17.545 19.7494382,18.096 C20.0831461,18.618 20.1134831,19.314 19.7797753,19.865 Z" id="Shape"></path>
                </g>
            </g>
        </g>
    </g>
</svg>