<?xml version="1.0" encoding="UTF-8"?>
<svg width="27px" height="28px" viewBox="0 0 27 28" version="1.1" xmlns="http://www.w3.org/2000/svg" xmlns:xlink="http://www.w3.org/1999/xlink">
    <!-- Generator: Sketch 48.2 (47327) - http://www.bohemiancoding.com/sketch -->
    <title>noun_651520_cc</title>
    <desc>Created with Sketch.</desc>
    <defs></defs>
    <g id="мои-заявки" stroke="none" stroke-width="1" fill="none" fill-rule="evenodd" transform="translate(-36.000000, -468.000000)" fill-opacity="0.5">
        <g id="Group-3" transform="translate(11.000000, 105.000000)" fill="#000000" fill-rule="nonzero">
            <g id="noun_651520_cc" transform="translate(25.000000, 363.000000)">
                <g id="Group">
                    <path d="M26.5133415,25.2587317 L25.8640244,25.2587317 L25.8640244,23.5930732 C25.8640244,23.416878 25.7263902,23.2738049 25.5561585,23.2738049 L24.7985122,23.2738049 L24.7985122,21.887122 C24.7985122,21.7105854 24.660878,21.5678537 24.4906463,21.5678537 L24.1491951,21.5678537 L24.1491951,14.3947317 C24.1491951,14.3715122 24.1462317,14.3486341 24.1419512,14.3267805 C24.2953902,14.1379512 24.3882439,13.8948293 24.3882439,13.6291707 L24.3882439,12.9783415 C24.3882439,12.6932195 24.2809024,12.4343902 24.1067195,12.240439 C24.1077073,12.2312195 24.1096829,12.222 24.1096829,12.212439 L24.1096829,9.22360976 L25.0145122,9.22360976 C25.1146098,9.22360976 25.208122,9.17341463 25.2657439,9.08873171 L26.3496951,7.50092683 C26.4007317,7.42580488 26.4185122,7.33156098 26.3977683,7.24209756 C26.3770244,7.15297561 26.3207195,7.07717073 26.2420244,7.03414634 L13.643561,0.154682927 C13.554,0.105512195 13.4463293,0.105512195 13.3567683,0.154682927 L0.758304878,7.0344878 C0.679939024,7.07717073 0.62297561,7.15331707 0.602231707,7.24243902 C0.581487805,7.33156098 0.599268293,7.42614634 0.650304878,7.50092683 L1.7342561,9.08873171 C1.79187805,9.17307317 1.88539024,9.22360976 1.9854878,9.22360976 L2.89031707,9.22360976 L2.89031707,12.212439 C2.89031707,12.2274634 2.89262195,12.2421463 2.89459756,12.2568293 C2.72930488,12.4490732 2.62756098,12.7010732 2.62756098,12.9783415 L2.62756098,13.6295122 C2.62756098,13.8883415 2.71580488,14.126 2.862,14.3127805 C2.85508537,14.3390732 2.85014634,14.3663902 2.85014634,14.3954146 L2.85014634,21.5681951 L2.52482927,21.5681951 C2.35492683,21.5681951 2.21696341,21.7109268 2.21696341,21.8874634 L2.21696341,23.2744878 L1.44285366,23.2744878 C1.27295122,23.2744878 1.1349878,23.4172195 1.1349878,23.5934146 L1.1349878,25.2590732 L0.486,25.2590732 C0.316097561,25.2590732 0.178134146,25.4021463 0.178134146,25.5783415 L0.178134146,27.5632683 C0.178134146,27.7394634 0.315768293,27.8825366 0.486,27.8825366 L26.5126829,27.8825366 C26.6829146,27.8825366 26.8205488,27.7394634 26.8205488,27.5632683 L26.8205488,25.5783415 C26.820878,25.4014634 26.6832439,25.2587317 26.5133415,25.2587317 Z M24.183439,23.2741463 L21.1884146,23.2741463 L21.1884146,22.2063902 L21.5295366,22.2063902 L23.8416585,22.2063902 L24.1831098,22.2063902 L24.1831098,23.2741463 L24.183439,23.2741463 Z M18.5312195,23.2741463 L18.5312195,21.8874634 C18.5312195,21.7109268 18.3935854,21.5681951 18.2236829,21.5681951 L17.8822317,21.5681951 L17.8822317,14.3950732 C17.8822317,14.3718537 17.8792683,14.3489756 17.8749878,14.327122 C18.0284268,14.1382927 18.1209512,13.8951707 18.1209512,13.6295122 L18.1209512,12.9786829 C18.1209512,12.8192195 18.0867073,12.6682927 18.0271098,12.5317073 L21.0774512,12.5317073 C21.0175244,12.6682927 20.9836098,12.8192195 20.9836098,12.9786829 L20.9836098,13.6295122 C20.9836098,13.8951707 21.0761341,14.1386341 21.2299024,14.327122 C21.2249634,14.3489756 21.2226585,14.3718537 21.2226585,14.3950732 L21.2226585,21.5681951 L20.8812073,21.5681951 C20.7109756,21.5681951 20.5733415,21.7109268 20.5733415,21.8874634 L20.5733415,23.2741463 L18.5312195,23.2741463 Z M12.2635976,23.2741463 L12.2635976,21.8874634 C12.2635976,21.7109268 12.1259634,21.5681951 11.9557317,21.5681951 L11.6142805,21.5681951 L11.6142805,14.3950732 C11.6142805,14.3718537 11.6116463,14.3489756 11.6070366,14.327122 C11.7604756,14.1382927 11.8533293,13.8951707 11.8533293,13.6295122 L11.8533293,12.9786829 C11.8533293,12.8192195 11.8190854,12.6682927 11.7594878,12.5317073 L14.8095,12.5317073 C14.7495732,12.6682927 14.7156585,12.8192195 14.7156585,12.9786829 L14.7156585,13.6295122 C14.7156585,13.8951707 14.8085122,14.1386341 14.9619512,14.327122 C14.9570122,14.3489756 14.9547073,14.3718537 14.9547073,14.3950732 L14.9547073,21.5681951 L14.6132561,21.5681951 C14.4433537,21.5681951 14.3053902,21.7109268 14.3053902,21.8874634 L14.3053902,23.2741463 L12.2635976,23.2741463 Z M6.44312195,23.2741463 L6.44312195,21.8874634 C6.44312195,21.7109268 6.3054878,21.5681951 6.1352561,21.5681951 L5.77767073,21.5681951 L5.77767073,14.3950732 C5.77767073,14.3773171 5.77536585,14.3599024 5.77240244,14.3431707 C5.9337439,14.1519512 6.03252439,13.9026829 6.03252439,13.6295122 L6.03252439,12.9786829 C6.03252439,12.8192195 5.99828049,12.6682927 5.93868293,12.5317073 L8.54154878,12.5317073 C8.48195122,12.6682927 8.44770732,12.8192195 8.44770732,12.9786829 L8.44770732,13.6295122 C8.44770732,13.8951707 8.54056098,14.1386341 8.694,14.327122 C8.68939024,14.3489756 8.6867561,14.3718537 8.6867561,14.3950732 L8.6867561,21.5681951 L8.34530488,21.5681951 C8.17540244,21.5681951 8.03743902,21.7109268 8.03743902,21.8874634 L8.03743902,23.2741463 L6.44312195,23.2741463 Z M3.24296341,13.6298537 L3.24296341,12.9786829 C3.24296341,12.7324878 3.4362439,12.5320488 3.67364634,12.5320488 L4.98643902,12.5320488 C5.22417073,12.5320488 5.41745122,12.7324878 5.41745122,12.9786829 L5.41745122,13.6298537 C5.41745122,13.8763902 5.22417073,14.0764878 4.98643902,14.0764878 L3.67364634,14.0764878 C3.4362439,14.0764878 3.24296341,13.8760488 3.24296341,13.6298537 Z M9.3024878,14.7150244 L9.49445122,14.7150244 L10.8072439,14.7150244 L10.9992073,14.7150244 L10.9992073,21.5685366 L9.3024878,21.5685366 L9.3024878,14.7150244 Z M11.2379268,12.9786829 L11.2379268,13.6298537 C11.2379268,13.8763902 11.0446463,14.0764878 10.8072439,14.0764878 L9.49445122,14.0764878 C9.25671951,14.0764878 9.06343902,13.8763902 9.06343902,13.6298537 L9.06343902,12.9786829 C9.06343902,12.7324878 9.25671951,12.5320488 9.49445122,12.5320488 L10.8072439,12.5320488 C11.0446463,12.5320488 11.2379268,12.7324878 11.2379268,12.9786829 Z M8.6535,22.2067317 L8.99495122,22.2067317 L11.3070732,22.2067317 L11.6485244,22.2067317 L11.6485244,23.2744878 L8.6535,23.2744878 L8.6535,22.2067317 Z M15.5697805,14.7150244 L15.7617439,14.7150244 L17.0745366,14.7150244 L17.2665,14.7150244 L17.2665,21.5685366 L15.5697805,21.5685366 L15.5697805,14.7150244 Z M17.5055488,12.9786829 L17.5055488,13.6298537 C17.5055488,13.8763902 17.311939,14.0764878 17.0745366,14.0764878 L15.7617439,14.0764878 C15.5240122,14.0764878 15.3307317,13.8763902 15.3307317,13.6298537 L15.3307317,12.9786829 C15.3307317,12.7324878 15.5240122,12.5320488 15.7617439,12.5320488 L17.0745366,12.5320488 C17.311939,12.5320488 17.5055488,12.7324878 17.5055488,12.9786829 Z M14.9207927,22.2067317 L15.2622439,22.2067317 L17.5743659,22.2067317 L17.9158171,22.2067317 L17.9158171,23.2744878 L14.9204634,23.2744878 L14.9204634,22.2067317 L14.9207927,22.2067317 Z M23.7728415,12.9786829 L23.7728415,13.6298537 C23.7728415,13.8763902 23.579561,14.0764878 23.3418293,14.0764878 L22.0290366,14.0764878 C21.7916341,14.0764878 21.5980244,13.8763902 21.5980244,13.6298537 L21.5980244,12.9786829 C21.5980244,12.7324878 21.7916341,12.5320488 22.0290366,12.5320488 L23.3418293,12.5320488 C23.5798902,12.5320488 23.7728415,12.7324878 23.7728415,12.9786829 Z M21.8374024,21.5685366 L21.8374024,14.7150244 L22.0293659,14.7150244 L23.3421585,14.7150244 L23.534122,14.7150244 L23.534122,21.5685366 L21.8374024,21.5685366 Z M1.35526829,7.42990244 L13.5,0.798 L25.6444024,7.42990244 L24.8554756,8.5857561 L23.8021463,8.5857561 L3.19818293,8.5857561 L2.14452439,8.5857561 L1.35526829,7.42990244 Z M23.4942805,9.22395122 L23.4942805,11.8935122 L23.3421585,11.8935122 L22.0293659,11.8935122 L17.0748659,11.8935122 L15.7620732,11.8935122 L10.8072439,11.8935122 L9.49445122,11.8935122 L4.98676829,11.8935122 L3.67397561,11.8935122 L3.50571951,11.8935122 L3.50571951,9.22395122 L23.4942805,9.22395122 Z M3.46587805,14.7150244 L3.67397561,14.7150244 L4.98676829,14.7150244 L5.16259756,14.7150244 L5.16259756,21.5685366 L3.46587805,21.5685366 L3.46587805,14.7150244 Z M2.83269512,22.2067317 L3.1580122,22.2067317 L5.47013415,22.2067317 L5.82771951,22.2067317 L5.82771951,23.2744878 L2.83269512,23.2744878 L2.83269512,22.2067317 Z M1.75104878,23.9123415 L2.52515854,23.9123415 L6.13558537,23.9123415 L8.34563415,23.9123415 L11.956061,23.9123415 L14.6129268,23.9123415 L18.2236829,23.9123415 L20.8805488,23.9123415 L24.4909756,23.9123415 L25.2489512,23.9123415 L25.2489512,25.2587317 L1.75104878,25.2587317 L1.75104878,23.9123415 Z M26.2054756,27.2436585 L0.794195122,27.2436585 L0.794195122,25.8972683 L1.44318293,25.8972683 L25.5561585,25.8972683 L26.2054756,25.8972683 L26.2054756,27.2436585 Z" id="Shape"></path>
                    <path d="M7.21756098,11.0629928 L19.7827683,11.0629928 C19.9526707,11.0629928 20.0906341,10.8789098 20.0906341,10.6512281 C20.0906341,10.4235465 19.9526707,10.2394634 19.7827683,10.2394634 L7.21756098,10.2394634 C7.04765854,10.2394634 6.90969512,10.4235465 6.90969512,10.6512281 C6.90969512,10.8789098 7.04765854,11.0629928 7.21756098,11.0629928 Z" id="Shape"></path>
                    <path d="M5.33513415,7.55377331 L21.6648659,7.55377331 C21.8347683,7.55377331 21.9727317,7.36969027 21.9727317,7.14200861 C21.9727317,6.91432695 21.8347683,6.7302439 21.6648659,6.7302439 L5.33513415,6.7302439 C5.16523171,6.7302439 5.02726829,6.91432695 5.02726829,7.14200861 C5.02726829,7.36969027 5.16523171,7.55377331 5.33513415,7.55377331 Z" id="Shape"></path>
                    <path d="M8.4384878,5.83109039 L18.5615122,5.83109039 C18.7317439,5.83109039 18.869378,5.64690885 18.869378,5.41910537 C18.869378,5.19130189 18.7317439,5.00756098 18.5615122,5.00756098 L8.4384878,5.00756098 C8.26858537,5.00756098 8.13062195,5.19174251 8.13062195,5.41910537 C8.13062195,5.64646822 8.26858537,5.83109039 8.4384878,5.83109039 Z" id="Shape"></path>
                </g>
            </g>
        </g>
    </g>
</svg>