<?xml version="1.0" encoding="UTF-8"?>
<svg width="27px" height="27px" viewBox="0 0 27 27" version="1.1" xmlns="http://www.w3.org/2000/svg" xmlns:xlink="http://www.w3.org/1999/xlink">
    <!-- Generator: Sketch 48.2 (47327) - http://www.bohemiancoding.com/sketch -->
    <title>noun_577831_cc</title>
    <desc>Created with Sketch.</desc>
    <defs></defs>
    <g id="мои-заявки" stroke="none" stroke-width="1" fill="none" fill-rule="evenodd" transform="translate(-36.000000, -105.000000)" fill-opacity="0.5">
        <g id="Group-3" transform="translate(11.000000, 105.000000)" fill="#000000" fill-rule="nonzero">
            <g id="noun_577831_cc" transform="translate(25.000000, 0.000000)">
                <g id="Group">
                    <path d="M11.7061778,0 L0.668821983,0 C0.299445767,0 0,0.299453004 0,0.668838147 L0,11.7061619 C0,12.075547 0.299445767,12.375 0.668821983,12.375 L11.7061778,12.375 C12.075554,12.375 12.3749998,12.075547 12.3749998,11.7061619 L12.3749998,0.668838147 C12.3752986,0.299453004 12.0758529,0 11.7061778,0 Z M11.0376547,11.0376226 L1.33764397,11.0376226 L1.33764397,1.33767629 L11.0376547,1.33767629 L11.0376547,11.0376226 Z" id="Shape"></path>
                    <path d="M26.3312103,0 L15.2934909,0 C14.9244313,0 14.625,0.299453004 14.625,0.668838147 L14.625,11.7061619 C14.625,12.075547 14.9244313,12.375 15.2934909,12.375 L26.3312103,12.375 C26.7002699,12.375 27,12.075547 27,11.7061619 L27,0.668838147 C27,0.299453004 26.7002699,0 26.3312103,0 Z M25.6621218,11.0376226 L15.9625794,11.0376226 L15.9625794,1.33767629 L25.6624206,1.33767629 L25.6624206,11.0376226 L25.6621218,11.0376226 Z" id="Shape"></path>
                    <path d="M11.7061778,14.625 L0.668821983,14.625 C0.299445767,14.625 0,14.924453 0,15.2935393 L0,26.3311619 C0,26.7002481 0.299445767,27 0.668821983,27 L11.7061778,27 C12.075554,27 12.3749998,26.7002481 12.3749998,26.3311619 L12.3749998,15.2935393 C12.3752986,14.924453 12.0758529,14.625 11.7061778,14.625 Z M11.0376547,25.6620249 L1.33764397,25.6620249 L1.33764397,15.9623774 L11.0376547,15.9623774 L11.0376547,25.6620249 Z" id="Shape"></path>
                    <path d="M26.3312103,14.625 L15.2934909,14.625 C14.9244313,14.625 14.625,14.924453 14.625,15.2935393 L14.625,26.3311619 C14.625,26.7002481 14.9244313,27 15.2934909,27 L26.3312103,27 C26.7002699,27 27,26.7002481 27,26.3311619 L27,15.2935393 C27,14.924453 26.7002699,14.625 26.3312103,14.625 Z M25.6621218,25.6620249 L15.9625794,25.6620249 L15.9625794,15.9623774 L25.6624206,15.9623774 L25.6624206,25.6620249 L25.6621218,25.6620249 Z" id="Shape"></path>
                </g>
            </g>
        </g>
    </g>
</svg>