<?xml version="1.0" encoding="UTF-8"?>
<svg width="23px" height="28px" viewBox="0 0 23 28" version="1.1" xmlns="http://www.w3.org/2000/svg" xmlns:xlink="http://www.w3.org/1999/xlink">
    <!-- Generator: Sketch 48.2 (47327) - http://www.bohemiancoding.com/sketch -->
    <title>Shape</title>
    <desc>Created with Sketch.</desc>
    <defs></defs>
    <g id="мои-заявки" stroke="none" stroke-width="1" fill="none" fill-rule="evenodd" transform="translate(-38.000000, -318.000000)" fill-opacity="0.5">
        <g id="Group-3" transform="translate(11.000000, 105.000000)" fill="#000000" fill-rule="nonzero">
            <g id="ico" transform="translate(25.000000, 71.000000)">
                <path d="M2.61304991,142.000699 C2.26442711,142.031607 1.99848872,142.307652 1.99999861,142.637047 L1.99999861,169.363652 C2.00003596,169.715083 2.3028802,169.999965 2.67646901,170 L16.205877,170 C16.3847388,169.998652 16.5557544,169.930728 16.6815203,169.811084 L24.7991651,162.174911 C24.9263522,162.056605 24.9985588,161.895733 24.9999922,161.727479 L24.9999922,142.637047 C24.9999549,142.285617 24.6971106,142.000735 24.3235218,142.000699 L2.67646901,142.000699 C2.65534093,141.999767 2.63417799,141.999767 2.61304991,142.000699 Z M3.35293941,143.273395 L23.6470514,143.273395 L23.6470514,161.091132 L16.205877,161.091132 C16.1847489,161.090199 16.163586,161.090199 16.1424579,161.091132 C15.7938351,161.122039 15.5278967,161.398084 15.5294066,161.727479 L15.5294066,168.727305 L3.35293941,168.727305 L3.35293941,143.273395 Z M7.34834271,146.455134 C7.10662862,146.465746 6.88930031,146.596873 6.77824235,146.799108 C6.66718438,147.001343 6.67927379,147.243954 6.80995556,147.435529 C6.94063733,147.627105 7.17005225,147.738533 7.41176181,147.727829 L19.588229,147.727829 C19.8321885,147.731075 20.0591075,147.610502 20.1820941,147.412282 C20.3050807,147.214061 20.3050807,146.968902 20.1820941,146.770681 C20.0591075,146.57246 19.8321885,146.451888 19.588229,146.455134 L7.41176181,146.455134 C7.39063373,146.454201 7.36947079,146.454201 7.34834271,146.455134 Z M7.34834271,149.955046 C7.10662862,149.965659 6.88930031,150.096786 6.77824235,150.299021 C6.66718438,150.501256 6.67927379,150.743866 6.80995556,150.935442 C6.94063733,151.127018 7.17005225,151.238445 7.41176181,151.227742 L19.588229,151.227742 C19.8321885,151.230987 20.0591075,151.110415 20.1820941,150.912194 C20.3050807,150.713973 20.3050807,150.468815 20.1820941,150.270594 C20.0591075,150.072373 19.8321885,149.951801 19.588229,149.955046 L7.41176181,149.955046 C7.39063373,149.954114 7.36947079,149.954114 7.34834271,149.955046 Z M7.34834271,153.454959 C7.10662862,153.465572 6.88930031,153.596698 6.77824235,153.798933 C6.66718438,154.001168 6.67927379,154.243779 6.80995556,154.435355 C6.94063733,154.62693 7.17005225,154.738358 7.41176181,154.727654 L19.588229,154.727654 C19.8321885,154.7309 20.0591075,154.610327 20.1820941,154.412107 C20.3050807,154.213886 20.3050807,153.968727 20.1820941,153.770506 C20.0591075,153.572286 19.8321885,153.451713 19.588229,153.454959 L7.41176181,153.454959 C7.39063373,153.454026 7.36947079,153.454026 7.34834271,153.454959 Z M7.34834271,156.954871 C7.10662862,156.965484 6.88930031,157.096611 6.77824235,157.298846 C6.66718438,157.501081 6.67927379,157.743692 6.80995556,157.935267 C6.94063733,158.126843 7.17005225,158.238271 7.41176181,158.227567 L19.588229,158.227567 C19.8321885,158.230812 20.0591075,158.11024 20.1820941,157.912019 C20.3050807,157.713798 20.3050807,157.46864 20.1820941,157.270419 C20.0591075,157.072198 19.8321885,156.951626 19.588229,156.954871 L7.41176181,156.954871 C7.39063373,156.953939 7.36947079,156.953939 7.34834271,156.954871 Z M16.8823474,162.363827 L22.6851951,162.363827 L16.8823474,167.822498 L16.8823474,162.363827 Z" id="Shape"></path>
            </g>
        </g>
    </g>
</svg>