<?xml version="1.0" encoding="UTF-8"?>
<svg width="24px" height="22px" viewBox="0 0 24 22" version="1.1" xmlns="http://www.w3.org/2000/svg" xmlns:xlink="http://www.w3.org/1999/xlink">
    <!-- Generator: Sketch 48.2 (47327) - http://www.bohemiancoding.com/sketch -->
    <title>noun_822428_cc</title>
    <desc>Created with Sketch.</desc>
    <defs></defs>
    <g id="мои-заявки" stroke="none" stroke-width="1" fill="none" fill-rule="evenodd" transform="translate(-38.000000, -614.000000)" fill-opacity="0.5">
        <g id="Group-3" transform="translate(11.000000, 105.000000)" fill="#000000">
            <g id="noun_822428_cc" transform="translate(27.000000, 509.000000)">
                <g id="Group" transform="translate(12.000000, 11.000000) scale(-1, 1) rotate(-180.000000) translate(-12.000000, -11.000000) ">
                    <g id="Shape">
                        <g>
                            <path d="M0.107357143,0.502239316 L0.107357143,14.1642393 C0.107357143,14.3278291 0.213428571,14.4699829 0.371785714,14.5361709 C0.373714286,14.5406838 0.378214286,14.5435043 0.382928571,14.5463248 L2.51807143,15.8373675 L2.51807143,21.4975726 C2.51807143,21.7311111 2.73407143,21.9206496 3.00021429,21.9206496 L21.0002143,21.9206496 C21.2661429,21.9206496 21.4823571,21.7311111 21.4823571,21.4975726 L21.4823571,15.8373675 L23.6177143,14.5463248 C23.6222143,14.5435043 23.6267143,14.5404957 23.6288571,14.5359829 C23.787,14.4697949 23.8932857,14.3278291 23.8932857,14.1642393 L23.8932857,0.502239316 C23.8932857,0.268888889 23.6770714,0.0791623932 23.4111429,0.0791623932 L0.5895,0.0791623932 C0.323357143,0.0791623932 0.107357143,0.268888889 0.107357143,0.502239316 Z M22.929,0.925316239 L22.929,12.9638291 L12.3201429,6.5488547 C12.3201429,6.5488547 12.1114286,6.40425641 12.0006429,6.40782906 C11.841,6.40782906 11.7589286,6.50034188 11.562,6.61936752 L1.07164286,12.963641 L1.07164286,0.925316239 L22.929,0.925316239 Z M12.0002143,7.38034188 L20.5180714,12.5490256 L20.5180714,21.0744957 L3.48235714,21.0744957 L3.48235714,12.5490256 L12.0002143,7.38034188 Z M7.92557143,11.5723761 C5.67621429,13.5461709 5.67621429,16.7495214 7.92557143,18.7233162 C10.1749286,20.6971111 13.8255,20.6971111 16.0748571,18.7233162 C18.3242143,16.7495214 18.3242143,13.5461709 16.0748571,11.5723761 C13.8255,9.5985812 10.1749286,9.5985812 7.92557143,11.5723761 Z M15.6203571,11.9711966 C17.6185714,13.7246154 17.6185714,16.5710769 15.6203571,18.3244957 C13.6221429,20.0779145 10.3782857,20.0779145 8.38007143,18.3244957 C6.38185714,16.5710769 6.38185714,13.7246154 8.38007143,11.9711966 C10.3782857,10.2177778 13.6221429,10.2177778 15.6203571,11.9711966 Z M2.51807143,13.134188 L2.51807143,14.7920855 L1.152,13.9632308 L2.51807143,13.134188 Z M21.4823571,13.134188 L22.8484286,13.9632308 L21.4823571,14.7920855 L21.4823571,13.134188 Z M11.6766429,13.3105641 L11.5774286,13.3165812 L11.4822857,13.3107521 C11.3597143,13.3239145 11.2429286,13.3780684 11.1610714,13.4700171 L9.82521429,14.9673333 C9.66107143,15.1510427 9.69814286,15.4172991 9.90771429,15.5611453 C10.1170714,15.7051795 10.4205,15.6726496 10.5844286,15.4887521 L11.5795714,14.3731453 L14.2596429,17.3758632 C14.4237857,17.5597607 14.727,17.5921026 14.9365714,17.4480684 C15.1461429,17.3040342 15.183,17.0379658 15.0188571,16.8540684 L11.9980714,13.469641 C11.916,13.3776923 11.799,13.3235385 11.6766429,13.3105641 Z"></path>
                        </g>
                    </g>
                </g>
            </g>
        </g>
    </g>
</svg>