<?xml version="1.0" encoding="UTF-8"?>
<svg width="23px" height="23px" viewBox="0 0 23 23" version="1.1" xmlns="http://www.w3.org/2000/svg" xmlns:xlink="http://www.w3.org/1999/xlink">
    <!-- Generator: Sketch 48.2 (47327) - http://www.bohemiancoding.com/sketch -->
    <title>noun_1039555_cc</title>
    <desc>Created with Sketch.</desc>
    <defs></defs>
    <g id="мои-заявки" stroke="none" stroke-width="1" fill="none" fill-rule="evenodd" transform="translate(-38.000000, -682.000000)" fill-opacity="0.5">
        <g id="Group-3" transform="translate(11.000000, 105.000000)" fill="#000000" fill-rule="nonzero">
            <g id="noun_1039555_cc" transform="translate(27.000000, 577.000000)">
                <g id="Group">
                    <path d="M22.3067143,22.8539074 C22.6020026,22.8539074 22.849709,22.6103995 22.849709,22.3109127 L22.849709,0.690486772 L22.849709,0.677891534 C22.849709,0.384002646 22.6006032,0.146092593 22.3067143,0.146092593 L19.2698624,0.146092593 L19.2572672,0.146092593 C18.9633783,0.146092593 18.7198704,0.384002646 18.7198704,0.677891534 L18.7198704,22.2983175 L18.7198704,22.3109127 C18.7198704,22.6117989 18.9633783,22.8539074 19.2572672,22.8539074 L22.294119,22.8539074 L22.3067143,22.8539074 Z M21.7637196,21.7665185 L19.7932646,21.7665185 L19.7932646,1.2278836 L21.7637196,1.2278836 L21.7637196,21.7665185 Z" id="Shape"></path>
                    <path d="M16.1098571,22.8539074 C16.4177407,22.8539074 16.6528519,22.6048016 16.6528519,22.3109127 L16.6528519,6.21559788 L16.6528519,6.20300265 C16.6528519,5.89651852 16.4163413,5.66560582 16.1098571,5.66560582 L13.0800026,5.66560582 L13.0674074,5.66560582 C12.7735185,5.66560582 12.5244127,5.89651852 12.5244127,6.20300265 L12.5244127,22.2927196 L12.5244127,22.3109127 C12.5244127,22.6048016 12.7735185,22.8539074 13.0674074,22.8539074 L16.1098571,22.8539074 Z M13.6173995,6.74039947 L15.5738598,6.74039947 L15.5738598,21.7665185 L13.6173995,21.7665185 L13.6173995,6.74039947 Z" id="Shape"></path>
                    <path d="M3.73153704,16.7032328 L0.693285714,16.7032328 L0.680690476,16.7032328 C0.386801587,16.7032328 0.148891534,16.9397434 0.148891534,17.2336323 L0.148891534,22.2983175 L0.148891534,22.3109127 C0.148891534,22.6117989 0.385402116,22.8539074 0.680690476,22.8539074 L3.7189418,22.8539074 L3.73153704,22.8539074 C4.03242328,22.8539074 4.2815291,22.6103995 4.2815291,22.3109127 L4.2815291,17.2518254 L4.2815291,17.2322328 C4.2815291,16.9383439 4.03102381,16.7032328 3.73153704,16.7032328 Z M3.19414021,21.7665185 L1.22368519,21.7665185 L1.22368519,17.776627 L3.19274074,17.776627 L3.19274074,21.7665185 L3.19414021,21.7665185 Z" id="Shape"></path>
                    <path d="M9.91999735,22.8539074 C10.2208836,22.8539074 10.4699894,22.6103995 10.4699894,22.3109127 L10.4699894,11.7281138 L10.4699894,11.7211164 C10.4699894,11.4202302 10.2208836,11.1781217 9.91999735,11.1781217 L6.89014286,11.1781217 L6.87754762,11.1781217 C6.57106349,11.1781217 6.33455291,11.4216296 6.33455291,11.7211164 L6.33455291,22.2913201 L6.33455291,22.3095132 C6.33455291,22.6103995 6.57106349,22.8525079 6.87754762,22.8525079 L9.90180423,22.8525079 L9.91999735,22.8525079 L9.91999735,22.8539074 Z M9.384,21.7665185 L7.41494444,21.7665185 L7.41494444,12.2641111 L9.384,12.2641111 L9.384,21.7665185 Z" id="Shape"></path>
                </g>
            </g>
        </g>
    </g>
</svg>