<?xml version="1.0" encoding="UTF-8"?>
<svg width="11px" height="10px" viewBox="0 0 11 10" version="1.1" xmlns="http://www.w3.org/2000/svg" xmlns:xlink="http://www.w3.org/1999/xlink">
    <!-- Generator: Sketch 48.2 (47327) - http://www.bohemiancoding.com/sketch -->
    <title>Shape</title>
    <desc>Created with Sketch.</desc>
    <defs></defs>
    <g id="мои-заявки" stroke="none" stroke-width="1" fill="none" fill-rule="evenodd" transform="translate(-151.000000, -110.000000)" fill-opacity="0.5">
        <g id="search-btn2" transform="translate(128.000000, 100.000000)" fill="#000000" fill-rule="nonzero">
            <g id="Group" transform="translate(23.000000, 8.000000)">
                <path d="M0.210922813,11.0882953 L4.22533986,7.38366182 C4.23211277,7.3776199 4.2400145,7.37324472 4.24678741,7.36782783 C3.80688686,6.80947123 3.54421081,6.12517188 3.54421081,5.38399517 C3.54421081,3.51787574 5.18912505,2 7.21106466,2 C9.23311714,2 10.8779185,3.51787574 10.8779185,5.38399517 C10.8779185,7.24990625 9.23311714,8.76778199 7.21106466,8.76778199 C6.40791033,8.76778199 5.66616373,8.52537606 5.0613428,8.11942164 C5.0551343,8.1256719 5.05039326,8.13296387 5.04407188,8.13890162 L1.02965483,11.843431 C0.916321461,11.9478103 0.768220481,12 0.620232382,12 C0.472131402,12 0.324030421,11.9478103 0.210922813,11.843431 C-0.0152924043,11.6349848 -0.0152924043,11.2966374 0.210922813,11.0882953 M7.21106466,8.14442268 C8.86060705,8.14442268 10.2024335,6.90593358 10.2024335,5.383891 C10.2024335,3.8615359 8.86060705,2.62325514 7.21106466,2.62325514 C5.56174802,2.62325514 4.21969577,3.86174424 4.21969577,5.383891 C4.21969577,6.90572524 5.56163514,8.14442268 7.21106466,8.14442268" id="Shape" transform="translate(5.459590, 7.000000) scale(-1, 1) translate(-5.459590, -7.000000) "></path>
            </g>
        </g>
    </g>
</svg>